<?xml version="1.0" encoding="utf-8"?>
<!-- Generator: Adobe Illustrator 28.4.1, SVG Export Plug-In . SVG Version: 6.00 Build 0)  -->
<svg version="1.1" id="Layer_1" xmlns="http://www.w3.org/2000/svg" xmlns:xlink="http://www.w3.org/1999/xlink" x="0px" y="0px"
	 viewBox="0 0 800 800" style="enable-background:new 0 0 800 800;" xml:space="preserve">
<style type="text/css">
	.st0{enable-background:new    ;}
	.st1{fill:#E9BAD7;}
	.st2{fill:#FCE2ED;}
	.st3{fill:#411E3E;}
	.st4{fill:#744462;}
	.st5{fill:#9B2E54;}
	.st6{fill:#B83965;}
	.st7{fill:#8D506A;}
	.st8{fill:#DDDDDD;}
	.st9{fill:#A35E7C;}
	.st10{fill:#C33F6C;}
	.st11{fill:#902A4D;}
	.st12{fill:#9F3056;}
	.st13{fill:#621A33;}
	.st14{fill:#CC723B;}
	.st15{fill:#FFFFFF;}
	.st16{fill:#E37F41;}
	.st17{fill:#8F4E26;}
	.st18{fill:#884864;}
	.st19{fill:#EE857B;}
	.st20{fill:#F59087;}
	.st21{fill:#F79156;}
	.st22{opacity:0.3;fill:#FFFFFF;}
	.st23{fill:#42232B;}
	.st24{fill:#8B8A8B;}
	.st25{fill:#2A141A;}
	.st26{fill:#C7C6C6;}
	.st27{fill:#4A2730;}
	.st28{fill:#F3766B;}
	.st29{fill:#A12F57;}
	.st30{fill:#B55236;}
	.st31{fill:#010101;}
	.st32{fill:#943C22;}
	.st33{fill:#BD3534;}
	.st34{fill:#E13F3E;}
	.st35{fill:#A7325B;}
	.st36{fill:#ED7B37;}
	.st37{fill:none;}
	.st38{fill:#45273A;}
</style>
<g>
	<g>
		<g class="st0">
			<polygon class="st1" points="405.41,671.62 64.2,474.62 64.18,481.73 405.39,678.73 744.39,481.73 744.41,474.62 			"/>
			<g>
				<polygon class="st2" points="744.41,474.62 405.41,671.62 64.2,474.62 403.19,277.62 				"/>
			</g>
		</g>
	</g>
	<ellipse class="st1" cx="255" cy="472.78" rx="61.56" ry="34.02"/>
	<g>
		<g>
			<path class="st3" d="M626.29,432.93c-2.51,8.56-3.98,18.57-3.98,29.31c0,31.3,12.27,56.68,27.4,56.68
				c15.13,0,27.4-25.37,27.4-56.68c0-10.74-1.47-20.75-3.98-29.31H626.29z"/>
			<path class="st4" d="M673.12,432.95c0,0.61-0.99,1.18-2.76,1.67c-2.35,0.7-6.05,1.25-10.55,1.58c-1.05,0.06-2.13,0.13-3.29,0.17
				c-0.74,0.04-1.49,0.06-2.28,0.09c-0.44,0.02-0.88,0.02-1.32,0.04c-1.05,0.04-2.13,0.04-3.22,0.04H649
				c-1.32,0-2.57-0.04-3.82-0.07c-2.92-0.09-5.7-0.28-8.14-0.51c-0.15,0-0.29-0.02-0.44-0.04c-1.19-0.11-2.26-0.28-3.29-0.4
				c-1.65-0.24-3.07-0.53-4.17-0.85c-1.82-0.51-2.85-1.1-2.85-1.71c0-0.44,0.53-0.86,1.47-1.25c1.25-0.51,3.22-0.97,5.71-1.34
				c0.53-0.09,1.1-0.17,1.69-0.24c0.51-0.06,1.07-0.13,1.62-0.18c1.78-0.17,3.75-0.33,5.81-0.42c1.21-0.07,2.46-0.11,3.79-0.15
				c1.08-0.02,2.19-0.02,3.34-0.02c0.5,0,0.96,0,1.41,0.02c1.14,0,2.26,0,3.36,0.04c0.33,0.04,0.66,0.04,0.99,0.04
				c0.35,0.02,0.68,0.04,1.01,0.06c0.79,0.04,1.56,0.07,2.33,0.15c6.41,0.39,11.34,1.23,13.32,2.26
				C672.79,432.23,673.12,432.58,673.12,432.95z"/>
		</g>
		<path class="st5" d="M697.17,353.96c-0.44,8.51-1.57,16.99-3.38,25.33c-3.21,14.88-8.53,29.32-15.78,42.7
			c-1.82,3.4-3.79,6.7-5.85,9.91c-0.6,0.92-1.18,1.82-1.8,2.73c-2.34,0.69-6.05,1.23-10.54,1.57c-1.04,0.05-2.13,0.12-3.28,0.18
			c-0.74,0.04-1.5,0.05-2.29,0.09c-0.44,0.02-0.88,0.02-1.32,0.04c-1.04,0.04-2.13,0.04-3.21,0.04h-0.72
			c-1.16,0-2.27-0.04-3.37-0.05c-0.16-0.02-0.3-0.02-0.46-0.02c-0.35-0.02-0.72-0.02-1.08-0.04c-0.69-0.04-1.36-0.07-2.03-0.11
			c-0.51-0.02-1.02-0.05-1.52-0.11c-1.23-0.07-2.4-0.16-3.51-0.26c-0.72-1.92-1.34-3.86-1.89-5.84c-2.43-8.97-2.98-18.46-1.85-27.75
			c0.39-3.38,1-6.75,1.85-10.07c0.19-0.76,0.39-1.5,0.6-2.26c2.87-10.26,7.69-19.87,13.79-28.61c3.72-5.32,7.92-10.31,12.43-14.97
			c4.5-4.64,9.61-9.08,15.85-10.79c6.22-1.76,13.82-0.07,17.24,5.43C697.38,344.86,697.42,349.53,697.17,353.96z"/>
		<path class="st6" d="M681.52,355.81c-6.49,5.94-11.72,12.69-16.04,19.97c2.61-0.18,5.24-0.04,7.83,0.41
			c0.97,0.16,1.43,1.3,1.23,2.17c-0.23,0.99-1.27,1.38-2.17,1.23c-0.23-0.04-0.44-0.07-0.65-0.11c-0.04-0.02-0.19-0.04-0.26-0.04
			c-0.3-0.05-0.6-0.07-0.9-0.11c-0.67-0.07-1.36-0.11-2.03-0.12c-1.39-0.04-2.79,0.02-4.18,0.18c-0.3,0.04-0.56-0.05-0.81-0.19
			c-3.17,5.85-5.8,12.01-8.04,18.33c-4.46,12.59-7.37,25.9-9.87,38.94c-0.16-0.02-0.3-0.02-0.46-0.02
			c-0.35-0.02-0.72-0.02-1.08-0.04c-0.69-0.04-1.36-0.07-2.03-0.11c0.37-2.03,0.76-4.04,1.18-6.06c0.65-3.31,1.34-6.63,2.1-9.92
			c2.33-10.33,5.29-20.71,9.34-30.59c3.77-9.15,8.46-17.86,14.49-25.67c-0.02-0.07-0.05-0.16-0.05-0.25
			c-0.04-0.55-0.09-1.09-0.14-1.62c-0.21-1.34-0.53-2.64-0.99-3.91c-0.35-0.92,0.37-1.89,1.22-2.17c0.42-0.14,0.99-0.04,1.36,0.18
			c0.42,0.25,0.65,0.62,0.81,1.06c0.37,0.97,0.63,1.97,0.85,2.98c2.12-2.45,4.37-4.79,6.8-7.03
			C680.69,351.77,683.19,354.26,681.52,355.81z"/>
		<path class="st6" d="M656.89,426.99c-0.09,0.85-0.21,1.67-0.41,2.5c-0.46,2.4-1.18,4.78-2.24,6.96c-0.44,0.02-0.88,0.02-1.32,0.04
			c-1.04,0.04-2.13,0.04-3.21,0.04h-0.72c-1.16,0-2.27-0.04-3.37-0.05c-0.16-0.02-0.3-0.02-0.46-0.02
			c-0.35-0.02-0.72-0.02-1.08-0.04c-0.69-0.04-1.36-0.07-2.03-0.11c-0.51-0.02-1.02-0.05-1.52-0.11c-1.23-0.07-2.4-0.16-3.51-0.26
			c-0.16,0-0.3-0.02-0.44-0.04c-1.2-0.12-2.27-0.28-3.3-0.41c-1.66-0.25-3.07-0.55-4.18-0.85c-0.48-1.04-0.93-2.03-1.38-2.96
			c-0.16-0.39-0.35-0.74-0.51-1.09c-4.37-8.81-8.6-17.7-12.34-26.8c-2.15-5.25-4.14-10.56-5.91-15.94
			c-5.94-18.28-9.1-37.78-6.42-56.82c0.86-6.1,2.96-12.94,8.6-15.43c3.44-1.48,7.49-0.93,10.84,0.74c3.35,1.69,6.06,4.37,8.51,7.21
			c9.29,10.79,15.28,24.06,19,37.85c0.37,1.3,0.72,2.61,1.04,3.93c1.94,8.02,3.19,16.18,4.11,24.38c0.32,2.59,0.58,5.2,0.81,7.79
			c0.44,4.72,0.83,9.45,1.2,14.17C657.1,416.79,657.51,421.92,656.89,426.99z"/>
		<path class="st6" d="M644.09,436.43c-0.69-0.04-1.36-0.07-2.03-0.11c-0.51-0.02-1.02-0.05-1.52-0.11
			c-0.62-4.88-1.43-9.75-2.36-14.6c-1.22-6.33-2.63-12.6-4.13-18.86c-0.25-0.12-0.51-0.25-0.76-0.39c-0.04,0-0.05-0.02-0.09-0.04
			c-0.07-0.04-0.16-0.07-0.25-0.11c-0.14-0.05-0.26-0.11-0.41-0.16c-0.63-0.25-1.27-0.44-1.94-0.62c-0.32-0.07-0.65-0.14-0.99-0.21
			c-0.14-0.04-0.28-0.05-0.42-0.07c-0.04-0.02-0.16-0.04-0.26-0.05c-0.04,0-0.09-0.02-0.12-0.02c-0.62-0.11-1.27-0.11-1.9-0.12
			c-0.99,0-1.71-0.79-1.76-1.76c-0.04-0.93,0.85-1.76,1.76-1.76c2.1,0.04,4.16,0.42,6.13,1.09c-1.67-6.88-3.42-13.75-5.13-20.63
			c-1.82-7.28-3.61-14.56-5.41-21.84c-0.07-0.05-0.14-0.09-0.21-0.12c-0.04-0.04-0.07-0.05-0.09-0.07
			c-0.07-0.05-0.14-0.09-0.21-0.14c-0.16-0.11-0.3-0.21-0.46-0.32c-0.3-0.21-0.62-0.41-0.93-0.58c-0.58-0.35-1.2-0.63-1.82-0.92
			c-0.51-0.21-1.04-0.41-1.57-0.56c-0.93-0.28-1.45-1.22-1.22-2.17c0.19-0.9,1.27-1.5,2.17-1.22c1.09,0.32,2.13,0.76,3.12,1.27
			c-1.46-5.96-2.94-11.9-4.42-17.86c-0.55-2.2,2.89-2.98,3.44-0.78c2.15,8.62,4.28,17.24,6.42,25.86
			c1.41,5.69,2.84,11.37,4.27,17.05c1.25-1.8,2.68-3.49,4.25-5.01c0.72-0.69,1.78-0.65,2.5,0c0.69,0.63,0.67,1.85,0,2.49
			c-1.04,0.99-1.99,2.04-2.87,3.17c-0.02,0-0.04,0.02-0.05,0.05c-0.04,0.04-0.07,0.09-0.09,0.11c-0.11,0.14-0.21,0.28-0.32,0.42
			c-0.21,0.28-0.41,0.58-0.6,0.88c-0.41,0.58-0.79,1.2-1.15,1.82c-0.14,0.25-0.33,0.42-0.56,0.56c1.02,4.09,2.04,8.18,3.05,12.29
			c0.86,3.58,1.75,7.16,2.59,10.74c2.15,9.01,4.09,18.07,5.5,27.22C643.56,432.32,643.84,434.36,644.09,436.43z"/>
	</g>
	<g>
		<g>
			<g class="st0">
				<g>
					<polygon class="st7" points="285.79,418.96 354.59,378.98 354.51,405.01 285.71,444.99 					"/>
				</g>
				<g>
					<polygon class="st8" points="201.59,370.35 270.39,330.37 354.59,378.98 285.79,418.96 					"/>
				</g>
				<g>
					<polygon class="st9" points="285.79,418.96 285.71,444.99 201.52,396.38 201.59,370.35 					"/>
				</g>
			</g>
			<g class="st0">
				<g>
					<polygon class="st5" points="286.79,409.08 355.59,369.09 355.56,379.54 286.76,419.52 					"/>
				</g>
				<g>
					<polygon class="st10" points="200.65,359.35 269.45,319.36 355.59,369.09 286.79,409.08 					"/>
				</g>
				<g>
					<polygon class="st6" points="286.79,409.08 286.76,419.52 285.79,418.96 201.59,370.35 200.62,369.79 200.65,359.35 					"/>
				</g>
			</g>
		</g>
		<g>
			<g>
				<g class="st0">
					<g>
						<polygon class="st11" points="629.69,380.74 629.39,489.77 629.35,498.13 629.27,530.99 533.52,586.62 533.95,436.37 						
							"/>
					</g>
					<g>
						<polygon class="st12" points="291.66,296.49 387.39,240.85 629.68,380.74 533.95,436.37 						"/>
					</g>
					<g>
						<polygon class="st13" points="533.95,436.37 533.65,544.84 533.61,553.18 533.52,586.62 291.23,446.74 291.32,413.28 
							291.36,404.94 291.66,296.49 						"/>
					</g>
				</g>
			</g>
			<g>
				<g class="st0">
					<g>
						<polygon class="st14" points="525.1,433.19 631,371.64 630.98,379.98 525.08,441.54 						"/>
					</g>
					<g>
						<polygon class="st15" points="629.39,489.77 629.35,498.13 533.95,553.59 533.96,545.23 						"/>
					</g>
					<g>
						<polygon class="st16" points="272.56,287.39 377.4,226.47 630.99,371.66 525.1,433.19 						"/>
					</g>
					<g>
						<polygon class="st17" points="525.1,433.19 525.08,441.54 272.54,295.73 272.56,287.39 						"/>
					</g>
					<g>
						<polygon class="st15" points="533.65,544.84 533.61,553.18 291.32,413.28 291.36,404.94 						"/>
					</g>
				</g>
			</g>
		</g>
		<g>
			<g>
				<g>
					<g class="st0">
						<path class="st18" d="M591.06,195.13c0-0.12-0.01-0.24-0.02-0.36c0-0.06-0.01-0.11-0.01-0.17c0-0.02,0-0.05-0.01-0.07
							c0-0.04-0.01-0.09-0.01-0.13c-0.01-0.12-0.03-0.25-0.04-0.37c-0.02-0.13-0.03-0.25-0.05-0.38c0,0,0-0.01,0-0.01
							c0,0,0-0.01,0-0.01c-0.02-0.12-0.04-0.24-0.06-0.36c-0.02-0.13-0.05-0.26-0.08-0.39c-0.01-0.05-0.02-0.09-0.03-0.14
							c-0.01-0.03-0.01-0.06-0.02-0.08c-0.01-0.06-0.03-0.12-0.04-0.17c-0.03-0.13-0.07-0.27-0.11-0.4
							c-0.03-0.1-0.06-0.19-0.08-0.29c-0.01-0.02-0.01-0.04-0.02-0.06c-0.01-0.02-0.01-0.04-0.02-0.06
							c-0.04-0.13-0.08-0.26-0.12-0.39c-0.04-0.13-0.09-0.26-0.13-0.38c-0.01-0.02-0.02-0.05-0.03-0.07
							c-0.01-0.02-0.01-0.04-0.02-0.05c-0.03-0.08-0.06-0.16-0.09-0.25c-0.05-0.12-0.1-0.24-0.15-0.37
							c-0.04-0.09-0.07-0.17-0.11-0.26c-0.01-0.02-0.01-0.03-0.02-0.05c-0.01-0.02-0.02-0.04-0.02-0.05
							c-0.05-0.12-0.11-0.24-0.17-0.36c-0.06-0.13-0.13-0.26-0.19-0.4c-0.01-0.02-0.02-0.04-0.03-0.06
							c-0.01-0.02-0.03-0.05-0.04-0.07c-0.05-0.11-0.11-0.21-0.16-0.32c-0.07-0.13-0.14-0.26-0.21-0.38
							c-0.04-0.07-0.07-0.13-0.11-0.2c-0.02-0.03-0.03-0.05-0.04-0.08c-0.07-0.11-0.14-0.22-0.2-0.33c-0.1-0.16-0.2-0.33-0.31-0.49
							c-0.02-0.03-0.03-0.05-0.05-0.08c-0.15-0.22-0.3-0.43-0.45-0.64c-0.01-0.01-0.01-0.02-0.02-0.03c0,0,0,0,0,0
							c-0.11-0.15-0.22-0.29-0.33-0.44c-0.09-0.12-0.18-0.23-0.28-0.34c0,0,0,0-0.01-0.01c0,0,0,0-0.01-0.01
							c-0.1-0.11-0.19-0.23-0.29-0.34c-0.1-0.11-0.19-0.22-0.29-0.32c-0.02-0.02-0.03-0.03-0.05-0.05
							c-0.02-0.02-0.03-0.03-0.05-0.05c-0.07-0.07-0.14-0.15-0.21-0.22c-0.1-0.11-0.21-0.21-0.32-0.31
							c-0.03-0.03-0.07-0.06-0.1-0.09c-0.02-0.02-0.05-0.05-0.07-0.07c-0.05-0.05-0.1-0.1-0.16-0.15c-0.11-0.1-0.22-0.2-0.33-0.29
							c-0.05-0.04-0.1-0.08-0.15-0.12c-0.02-0.02-0.05-0.04-0.07-0.06c-0.04-0.03-0.07-0.06-0.11-0.09
							c-0.11-0.09-0.22-0.17-0.33-0.25c-0.08-0.06-0.16-0.12-0.24-0.17c-0.01-0.01-0.03-0.02-0.04-0.03
							c-0.01-0.01-0.03-0.02-0.04-0.03c-0.11-0.07-0.21-0.14-0.32-0.21c-0.11-0.07-0.21-0.13-0.32-0.2
							c-0.02-0.01-0.05-0.03-0.07-0.04l-80.25-46.33c-0.08-0.05-0.16-0.09-0.24-0.13c-0.1-0.06-0.21-0.11-0.31-0.16
							c-0.07-0.03-0.13-0.06-0.2-0.09c-0.02-0.01-0.03-0.02-0.05-0.02c-0.02-0.01-0.04-0.02-0.06-0.03c-0.1-0.05-0.2-0.09-0.3-0.13
							c-0.1-0.04-0.2-0.08-0.3-0.11c-0.02-0.01-0.03-0.01-0.05-0.02c-0.02-0.01-0.03-0.01-0.05-0.01c-0.07-0.02-0.14-0.05-0.21-0.07
							c-0.1-0.03-0.21-0.06-0.31-0.09c-0.05-0.01-0.1-0.02-0.15-0.03c-0.02,0-0.04-0.01-0.06-0.01c-0.03-0.01-0.06-0.02-0.1-0.02
							c-0.11-0.02-0.22-0.04-0.33-0.05c-0.07-0.01-0.13-0.01-0.2-0.02c-0.02,0-0.05-0.01-0.07-0.01c-0.02,0-0.04-0.01-0.07-0.01
							c-0.12-0.01-0.24-0.01-0.35-0.01c-0.05,0-0.1,0.01-0.15,0.01c-0.04,0-0.08,0-0.12,0.01c-0.04,0-0.08,0-0.12,0.01
							c-0.15,0.01-0.29,0.03-0.43,0.06c0,0-0.01,0-0.01,0c-0.03,0.01-0.06,0.02-0.09,0.02c-0.15,0.03-0.29,0.07-0.43,0.12
							c-0.01,0-0.02,0.01-0.03,0.02c-0.2,0.07-0.39,0.16-0.58,0.27l-6.34,3.68c0.18-0.11,0.38-0.19,0.58-0.27
							c0.15-0.05,0.3-0.1,0.46-0.13c0.03-0.01,0.06-0.02,0.09-0.02c0.18-0.04,0.37-0.06,0.56-0.07c0.04,0,0.08,0,0.12-0.01
							c0.19-0.01,0.38,0,0.57,0.01c0.02,0,0.05,0.01,0.07,0.01c0.2,0.02,0.41,0.05,0.62,0.1c0.02,0,0.04,0.01,0.06,0.01
							c0.22,0.05,0.44,0.11,0.67,0.19c0.02,0.01,0.03,0.01,0.05,0.01c0.24,0.08,0.47,0.18,0.72,0.29c0.02,0.01,0.03,0.02,0.05,0.02
							c0.25,0.11,0.5,0.24,0.75,0.39l80.25,46.33c0.26,0.15,0.51,0.31,0.76,0.48c0.01,0.01,0.03,0.02,0.04,0.03
							c0.23,0.16,0.46,0.33,0.69,0.52c0.02,0.02,0.05,0.04,0.07,0.06c0.22,0.18,0.43,0.37,0.64,0.56c0.02,0.02,0.05,0.04,0.07,0.07
							c0.21,0.2,0.42,0.41,0.63,0.63c0.02,0.02,0.03,0.04,0.05,0.05c0.22,0.23,0.43,0.47,0.64,0.72c0,0,0,0,0.01,0.01
							c0.21,0.25,0.42,0.52,0.61,0.78c0.01,0.01,0.01,0.02,0.02,0.03c0.17,0.24,0.34,0.48,0.5,0.72c0.11,0.16,0.21,0.33,0.31,0.49
							c0.08,0.13,0.17,0.27,0.25,0.4c0.04,0.07,0.07,0.13,0.11,0.2c0.13,0.23,0.26,0.46,0.38,0.7c0.01,0.03,0.03,0.05,0.04,0.08
							c0.14,0.29,0.28,0.58,0.41,0.87c0.01,0.02,0.01,0.03,0.02,0.05c0.12,0.29,0.24,0.58,0.35,0.87c0.01,0.02,0.01,0.04,0.02,0.06
							c0.11,0.3,0.21,0.6,0.3,0.9c0.01,0.02,0.01,0.04,0.02,0.05c0.09,0.29,0.16,0.58,0.23,0.86c0.01,0.03,0.01,0.06,0.02,0.08
							c0.07,0.3,0.13,0.59,0.17,0.89c0,0,0,0.01,0,0.01c0.05,0.3,0.08,0.59,0.11,0.89c0,0.02,0,0.05,0.01,0.07
							c0.02,0.29,0.04,0.58,0.03,0.87l-0.44,155.88c0,0.29-0.02,0.56-0.04,0.83c0,0.02,0,0.05-0.01,0.07
							c-0.02,0.24-0.06,0.48-0.1,0.7c-0.01,0.03-0.01,0.06-0.02,0.09c-0.05,0.22-0.1,0.43-0.16,0.63c-0.01,0.04-0.02,0.07-0.04,0.11
							c-0.06,0.19-0.13,0.36-0.21,0.53c-0.01,0.02-0.02,0.04-0.03,0.06c-0.09,0.19-0.19,0.37-0.3,0.54
							c-0.15,0.24-0.33,0.45-0.52,0.65c-0.05,0.05-0.09,0.09-0.14,0.14c-0.2,0.18-0.41,0.35-0.63,0.48l6.34-3.68
							c0.23-0.13,0.44-0.3,0.64-0.48c0.05-0.04,0.09-0.09,0.14-0.14c0.19-0.19,0.37-0.4,0.52-0.65c0,0,0-0.01,0.01-0.01
							c0.1-0.16,0.2-0.33,0.28-0.52c0-0.01,0.01-0.01,0.01-0.02c0.01-0.02,0.02-0.04,0.03-0.06c0.05-0.11,0.1-0.23,0.15-0.34
							c0.02-0.06,0.04-0.13,0.06-0.19c0.01-0.04,0.02-0.07,0.04-0.11c0.01-0.03,0.02-0.06,0.03-0.1c0.04-0.13,0.07-0.25,0.1-0.39
							c0.01-0.05,0.02-0.1,0.03-0.14c0.01-0.03,0.01-0.06,0.02-0.09c0.01-0.05,0.02-0.09,0.03-0.13c0.02-0.12,0.04-0.24,0.05-0.36
							c0.01-0.07,0.01-0.14,0.02-0.21c0-0.02,0.01-0.05,0.01-0.07c0-0.03,0.01-0.06,0.01-0.08c0.01-0.12,0.02-0.24,0.02-0.36
							c0.01-0.12,0.01-0.24,0.01-0.37c0-0.01,0-0.01,0-0.02l0.44-155.88C591.06,195.35,591.06,195.24,591.06,195.13z"/>
						<g>
							<path class="st9" d="M577.22,186.15c4.16,2.4,7.52,8.23,7.51,13l-0.44,155.88c-0.01,4.79-3.39,6.72-7.56,4.31l-80.25-46.33
								c-4.16-2.4-7.53-8.23-7.51-13.02l0.44-155.88c0.01-4.78,3.4-6.71,7.56-4.3L577.22,186.15z"/>
						</g>
					</g>
					<g>
						<g class="st0">
							<path class="st19" d="M583.06,199.9c0-0.12-0.01-0.24-0.02-0.36c0-0.05-0.01-0.11-0.01-0.16c0-0.02,0-0.05-0.01-0.07
								c0-0.04-0.01-0.08-0.01-0.13c-0.01-0.12-0.02-0.24-0.04-0.36c-0.02-0.12-0.03-0.25-0.05-0.37c0,0,0-0.01,0-0.01
								c0,0,0-0.01,0-0.01c-0.02-0.12-0.04-0.23-0.06-0.35c-0.02-0.13-0.05-0.26-0.08-0.38c-0.01-0.04-0.02-0.09-0.03-0.13
								c-0.01-0.03-0.01-0.05-0.02-0.08c-0.01-0.06-0.03-0.11-0.04-0.17c-0.03-0.13-0.07-0.26-0.1-0.39
								c-0.03-0.09-0.05-0.19-0.08-0.28c-0.01-0.02-0.01-0.03-0.02-0.05c-0.01-0.02-0.01-0.04-0.02-0.05
								c-0.04-0.13-0.08-0.25-0.12-0.38c-0.04-0.13-0.09-0.25-0.13-0.38c-0.01-0.02-0.02-0.04-0.03-0.07
								c-0.01-0.02-0.01-0.03-0.02-0.05c-0.03-0.08-0.06-0.16-0.09-0.24c-0.05-0.12-0.09-0.24-0.14-0.36
								c-0.03-0.08-0.07-0.17-0.11-0.25c-0.01-0.02-0.01-0.03-0.02-0.05c-0.01-0.02-0.02-0.04-0.02-0.05
								c-0.05-0.12-0.11-0.24-0.16-0.36c-0.06-0.13-0.12-0.26-0.19-0.39c-0.01-0.02-0.02-0.04-0.03-0.06
								c-0.01-0.03-0.03-0.05-0.04-0.08c-0.05-0.1-0.11-0.21-0.16-0.31c-0.07-0.12-0.14-0.25-0.21-0.37
								c-0.04-0.07-0.07-0.13-0.11-0.2c-0.02-0.03-0.03-0.05-0.04-0.08c-0.06-0.11-0.13-0.21-0.2-0.32c-0.1-0.16-0.2-0.32-0.3-0.48
								c-0.02-0.03-0.03-0.05-0.05-0.08c-0.14-0.21-0.28-0.41-0.43-0.61c-0.01-0.01-0.02-0.03-0.03-0.04c0,0,0,0,0,0
								c-0.11-0.14-0.21-0.29-0.33-0.43c-0.09-0.11-0.18-0.22-0.27-0.33c0,0-0.01-0.01-0.01-0.01c0,0,0-0.01-0.01-0.01
								c-0.09-0.11-0.19-0.22-0.28-0.33c-0.09-0.11-0.19-0.21-0.29-0.32c-0.01-0.02-0.03-0.03-0.04-0.05
								c-0.02-0.02-0.03-0.03-0.05-0.05c-0.07-0.07-0.14-0.15-0.21-0.22c-0.1-0.1-0.2-0.21-0.31-0.31
								c-0.03-0.03-0.06-0.06-0.09-0.09c-0.02-0.02-0.05-0.05-0.07-0.07c-0.05-0.05-0.1-0.1-0.16-0.14
								c-0.11-0.1-0.22-0.19-0.33-0.28c-0.05-0.04-0.09-0.08-0.14-0.12c-0.02-0.02-0.05-0.04-0.07-0.06
								c-0.04-0.03-0.07-0.06-0.11-0.09c-0.11-0.08-0.21-0.17-0.32-0.25c-0.08-0.06-0.16-0.11-0.23-0.17
								c-0.02-0.01-0.03-0.02-0.05-0.03c-0.01-0.01-0.03-0.02-0.04-0.03c-0.1-0.07-0.21-0.14-0.31-0.21
								c-0.1-0.07-0.21-0.13-0.31-0.19c-0.02-0.01-0.05-0.03-0.07-0.04l-78.23-45.17c-0.08-0.05-0.16-0.09-0.23-0.13
								c-0.1-0.05-0.2-0.11-0.3-0.16c-0.07-0.03-0.13-0.06-0.19-0.09c-0.02-0.01-0.03-0.01-0.05-0.02
								c-0.02-0.01-0.04-0.02-0.06-0.03c-0.1-0.04-0.2-0.09-0.29-0.12c-0.1-0.04-0.2-0.08-0.3-0.11c-0.02-0.01-0.03-0.01-0.05-0.02
								c-0.02-0.01-0.03-0.01-0.05-0.02c-0.07-0.02-0.13-0.04-0.2-0.06c-0.1-0.03-0.2-0.06-0.3-0.08c-0.05-0.01-0.1-0.02-0.15-0.03
								c-0.02,0-0.04-0.01-0.06-0.01c-0.03-0.01-0.06-0.01-0.09-0.02c-0.11-0.02-0.22-0.04-0.32-0.05c-0.07-0.01-0.13-0.01-0.2-0.02
								c-0.02,0-0.04,0-0.07-0.01c-0.02,0-0.04-0.01-0.06-0.01c-0.12-0.01-0.23-0.01-0.35-0.01c-0.05,0-0.1,0.01-0.15,0.01
								c-0.04,0-0.08,0-0.11,0.01c-0.04,0-0.08,0-0.12,0.01c-0.14,0.01-0.29,0.03-0.42,0.06c0,0-0.01,0-0.01,0
								c-0.03,0.01-0.06,0.02-0.1,0.03c-0.14,0.03-0.28,0.07-0.41,0.11c-0.01,0-0.02,0.01-0.03,0.01c-0.2,0.07-0.38,0.16-0.56,0.26
								l-3.96,2.3c0.18-0.1,0.37-0.19,0.56-0.26c0.14-0.05,0.29-0.09,0.44-0.13c0.03-0.01,0.06-0.02,0.1-0.03
								c0.18-0.04,0.36-0.06,0.55-0.07c0.04,0,0.08,0,0.11-0.01c0.18-0.01,0.37,0,0.56,0.01c0.02,0,0.04,0,0.07,0.01
								c0.2,0.02,0.4,0.05,0.61,0.09c0.02,0,0.04,0.01,0.06,0.01c0.21,0.05,0.43,0.11,0.64,0.18c0.02,0.01,0.03,0.01,0.05,0.02
								c0.23,0.08,0.46,0.17,0.7,0.28c0.02,0.01,0.03,0.01,0.05,0.02c0.24,0.11,0.48,0.24,0.73,0.38l78.23,45.17
								c0.25,0.14,0.49,0.3,0.73,0.47c0.02,0.01,0.03,0.02,0.05,0.03c0.22,0.16,0.45,0.32,0.67,0.5c0.02,0.02,0.05,0.04,0.07,0.06
								c0.21,0.17,0.42,0.36,0.62,0.55c0.02,0.02,0.05,0.05,0.07,0.07c0.21,0.2,0.41,0.4,0.61,0.61c0.02,0.02,0.03,0.03,0.05,0.05
								c0.21,0.23,0.42,0.46,0.62,0.7c0,0,0.01,0.01,0.01,0.01c0.2,0.25,0.4,0.5,0.59,0.76c0.01,0.01,0.02,0.03,0.03,0.04
								c0.17,0.23,0.33,0.46,0.48,0.69c0.1,0.16,0.2,0.32,0.3,0.48c0.08,0.13,0.16,0.26,0.24,0.39c0.04,0.07,0.08,0.13,0.11,0.2
								c0.13,0.22,0.25,0.45,0.37,0.68c0.01,0.03,0.03,0.05,0.04,0.08c0.14,0.28,0.28,0.56,0.4,0.85c0.01,0.02,0.01,0.03,0.02,0.05
								c0.12,0.28,0.24,0.56,0.34,0.85c0.01,0.02,0.01,0.03,0.02,0.05c0.11,0.29,0.21,0.58,0.29,0.88c0.01,0.02,0.01,0.03,0.02,0.05
								c0.08,0.28,0.16,0.56,0.22,0.84c0.01,0.03,0.01,0.05,0.02,0.08c0.07,0.29,0.12,0.58,0.17,0.87c0,0,0,0.01,0,0.01
								c0.05,0.29,0.08,0.58,0.1,0.86c0,0.02,0,0.05,0.01,0.07c0.02,0.29,0.03,0.57,0.03,0.85l-0.43,151.95
								c0,0.28-0.01,0.55-0.04,0.81c0,0.02,0,0.05-0.01,0.07c-0.02,0.24-0.06,0.47-0.1,0.69c-0.01,0.03-0.01,0.06-0.02,0.09
								c-0.04,0.21-0.1,0.42-0.16,0.61c-0.01,0.04-0.02,0.07-0.04,0.11c-0.06,0.18-0.13,0.36-0.2,0.52
								c-0.01,0.02-0.02,0.04-0.02,0.06c-0.09,0.19-0.19,0.36-0.29,0.53c-0.15,0.23-0.32,0.44-0.51,0.63
								c-0.04,0.05-0.09,0.09-0.14,0.13c-0.19,0.18-0.4,0.34-0.62,0.47l3.96-2.3c0.22-0.13,0.43-0.29,0.62-0.47
								c0.05-0.04,0.09-0.09,0.14-0.13c0.18-0.19,0.36-0.39,0.51-0.63c0,0,0.01-0.01,0.01-0.01c0.1-0.16,0.19-0.32,0.28-0.5
								c0-0.01,0-0.01,0.01-0.02c0.01-0.02,0.02-0.04,0.03-0.06c0.05-0.11,0.1-0.22,0.14-0.34c0.02-0.06,0.04-0.12,0.06-0.18
								c0.01-0.04,0.02-0.07,0.04-0.11c0.01-0.03,0.02-0.06,0.03-0.1c0.04-0.12,0.07-0.25,0.1-0.38c0.01-0.05,0.02-0.09,0.03-0.14
								c0.01-0.03,0.01-0.06,0.02-0.09c0.01-0.04,0.02-0.09,0.03-0.13c0.02-0.11,0.04-0.23,0.05-0.35c0.01-0.07,0.01-0.13,0.02-0.2
								c0-0.02,0.01-0.05,0.01-0.07c0-0.03,0.01-0.05,0.01-0.08c0.01-0.11,0.02-0.23,0.02-0.35c0-0.12,0.01-0.23,0.01-0.36
								c0-0.01,0-0.01,0-0.02l0.43-151.95C583.07,200.12,583.07,200.01,583.06,199.9z"/>
							<g>
								<path class="st20" d="M571.78,189.85c4.06,2.34,7.33,8.03,7.32,12.69l-0.43,151.95c-0.01,4.66-3.31,6.54-7.37,4.2
									l-78.23-45.17c-4.06-2.34-7.33-8.02-7.32-12.68l0.43-151.95c0.01-4.66,3.31-6.55,7.37-4.21L571.78,189.85z"/>
							</g>
						</g>
					</g>
					<g class="st0">
						<path class="st18" d="M578.93,201.59c0-0.12-0.01-0.24-0.02-0.36c0-0.06-0.01-0.11-0.01-0.17c0-0.02,0-0.05-0.01-0.07
							c0-0.04-0.01-0.09-0.01-0.13c-0.01-0.12-0.03-0.25-0.04-0.37c-0.02-0.13-0.03-0.25-0.05-0.38c0,0,0-0.01,0-0.01
							c0,0,0-0.01,0-0.01c-0.02-0.12-0.04-0.24-0.06-0.36c-0.02-0.13-0.05-0.26-0.08-0.39c-0.01-0.05-0.02-0.09-0.03-0.14
							c-0.01-0.03-0.01-0.06-0.02-0.08c-0.01-0.06-0.03-0.12-0.04-0.17c-0.03-0.13-0.07-0.27-0.11-0.4
							c-0.03-0.1-0.06-0.19-0.08-0.29c-0.01-0.02-0.01-0.04-0.02-0.06c-0.01-0.02-0.01-0.04-0.02-0.06
							c-0.04-0.13-0.08-0.26-0.12-0.39c-0.04-0.13-0.09-0.26-0.13-0.38c-0.01-0.02-0.02-0.05-0.03-0.07
							c-0.01-0.02-0.01-0.04-0.02-0.05c-0.03-0.08-0.06-0.16-0.09-0.25c-0.05-0.12-0.1-0.24-0.15-0.37
							c-0.04-0.09-0.07-0.17-0.11-0.26c-0.01-0.02-0.01-0.03-0.02-0.05c-0.01-0.02-0.02-0.04-0.02-0.05
							c-0.05-0.12-0.11-0.24-0.17-0.36c-0.06-0.13-0.13-0.26-0.19-0.4c-0.01-0.02-0.02-0.04-0.03-0.06
							c-0.01-0.02-0.02-0.05-0.04-0.07c-0.05-0.11-0.11-0.21-0.16-0.32c-0.07-0.13-0.14-0.26-0.21-0.38
							c-0.04-0.07-0.07-0.13-0.11-0.2c-0.02-0.03-0.03-0.05-0.04-0.08c-0.07-0.11-0.14-0.22-0.2-0.33c-0.1-0.16-0.2-0.33-0.31-0.49
							c-0.02-0.03-0.03-0.05-0.05-0.08c-0.15-0.22-0.3-0.43-0.45-0.64c-0.01-0.01-0.01-0.02-0.02-0.03c0,0,0,0,0,0
							c-0.11-0.15-0.22-0.29-0.33-0.44c-0.09-0.12-0.18-0.23-0.28-0.34c0,0,0,0-0.01-0.01c0,0,0,0-0.01-0.01
							c-0.1-0.11-0.19-0.23-0.29-0.34c-0.1-0.11-0.19-0.22-0.29-0.32c-0.02-0.02-0.03-0.03-0.05-0.05
							c-0.02-0.02-0.03-0.03-0.05-0.05c-0.07-0.07-0.14-0.15-0.21-0.22c-0.1-0.11-0.21-0.21-0.32-0.31
							c-0.03-0.03-0.07-0.06-0.1-0.09c-0.02-0.02-0.05-0.05-0.07-0.07c-0.05-0.05-0.1-0.1-0.16-0.15c-0.11-0.1-0.22-0.2-0.33-0.29
							c-0.05-0.04-0.1-0.08-0.15-0.12c-0.02-0.02-0.05-0.04-0.07-0.06c-0.04-0.03-0.07-0.06-0.11-0.09
							c-0.11-0.09-0.22-0.17-0.33-0.25c-0.08-0.06-0.16-0.12-0.24-0.17c-0.01-0.01-0.03-0.02-0.04-0.03
							c-0.01-0.01-0.03-0.02-0.04-0.03c-0.11-0.07-0.21-0.14-0.32-0.21c-0.11-0.07-0.21-0.13-0.32-0.2
							c-0.02-0.01-0.05-0.03-0.07-0.04l-80.25-46.33c-0.08-0.05-0.16-0.09-0.24-0.13c-0.1-0.06-0.21-0.11-0.31-0.16
							c-0.07-0.03-0.13-0.06-0.2-0.09c-0.02-0.01-0.03-0.02-0.05-0.02c-0.02-0.01-0.04-0.02-0.06-0.03c-0.1-0.05-0.2-0.09-0.3-0.13
							c-0.1-0.04-0.2-0.08-0.3-0.11c-0.02-0.01-0.03-0.01-0.05-0.02c-0.02-0.01-0.03-0.01-0.05-0.01c-0.07-0.02-0.14-0.05-0.2-0.07
							c-0.1-0.03-0.21-0.06-0.31-0.09c-0.05-0.01-0.1-0.02-0.15-0.03c-0.02,0-0.04-0.01-0.06-0.01c-0.03-0.01-0.06-0.02-0.1-0.02
							c-0.11-0.02-0.22-0.04-0.33-0.05c-0.07-0.01-0.13-0.01-0.2-0.02c-0.02,0-0.05-0.01-0.07-0.01c-0.02,0-0.04-0.01-0.07-0.01
							c-0.12-0.01-0.24-0.01-0.35-0.01c-0.05,0-0.1,0.01-0.15,0.01c-0.04,0-0.08,0-0.12,0.01c-0.04,0-0.08,0-0.12,0.01
							c-0.15,0.01-0.29,0.03-0.43,0.06c0,0-0.01,0-0.01,0c-0.03,0.01-0.06,0.02-0.09,0.02c-0.15,0.03-0.29,0.07-0.43,0.12
							c-0.01,0-0.02,0.01-0.03,0.01c-0.2,0.07-0.39,0.16-0.58,0.27l-6.34,3.68c0.18-0.11,0.38-0.19,0.58-0.27
							c0.15-0.05,0.3-0.1,0.46-0.13c0.03-0.01,0.06-0.02,0.09-0.02c0.18-0.04,0.37-0.06,0.56-0.07c0.04,0,0.08,0,0.12-0.01
							c0.19-0.01,0.38,0,0.57,0.01c0.02,0,0.05,0.01,0.07,0.01c0.2,0.02,0.41,0.05,0.62,0.1c0.02,0,0.04,0.01,0.06,0.01
							c0.22,0.05,0.44,0.11,0.67,0.19c0.02,0.01,0.03,0.01,0.05,0.01c0.23,0.08,0.47,0.18,0.72,0.29c0.02,0.01,0.03,0.02,0.05,0.02
							c0.25,0.11,0.5,0.24,0.75,0.39l80.25,46.33c0.26,0.15,0.51,0.31,0.76,0.48c0.01,0.01,0.03,0.02,0.04,0.03
							c0.23,0.16,0.46,0.33,0.69,0.52c0.02,0.02,0.05,0.04,0.07,0.06c0.22,0.18,0.43,0.37,0.64,0.56c0.02,0.02,0.05,0.04,0.07,0.07
							c0.21,0.2,0.42,0.41,0.63,0.63c0.02,0.02,0.03,0.04,0.05,0.05c0.22,0.23,0.43,0.47,0.64,0.72c0,0,0,0,0.01,0.01
							c0.21,0.25,0.42,0.52,0.61,0.78c0.01,0.01,0.01,0.02,0.02,0.03c0.17,0.24,0.34,0.48,0.5,0.72c0.11,0.16,0.21,0.33,0.31,0.49
							c0.08,0.13,0.17,0.27,0.25,0.4c0.04,0.07,0.08,0.13,0.11,0.2c0.13,0.23,0.26,0.46,0.38,0.7c0.01,0.03,0.03,0.05,0.04,0.08
							c0.14,0.29,0.28,0.58,0.41,0.87c0.01,0.02,0.01,0.03,0.02,0.05c0.12,0.29,0.24,0.58,0.35,0.87c0.01,0.02,0.01,0.04,0.02,0.06
							c0.11,0.3,0.21,0.6,0.3,0.9c0.01,0.02,0.01,0.04,0.02,0.05c0.09,0.29,0.16,0.58,0.23,0.86c0.01,0.03,0.01,0.06,0.02,0.08
							c0.07,0.3,0.13,0.59,0.17,0.89c0,0,0,0.01,0,0.01c0.05,0.3,0.08,0.59,0.11,0.89c0,0.02,0,0.05,0.01,0.07
							c0.02,0.29,0.04,0.58,0.03,0.87l-0.44,155.88c0,0.29-0.02,0.56-0.04,0.83c0,0.02,0,0.05-0.01,0.07
							c-0.02,0.24-0.06,0.48-0.1,0.7c-0.01,0.03-0.01,0.06-0.02,0.09c-0.04,0.22-0.1,0.43-0.16,0.63c-0.01,0.04-0.02,0.07-0.04,0.11
							c-0.06,0.19-0.13,0.36-0.21,0.53c-0.01,0.02-0.02,0.04-0.03,0.06c-0.09,0.19-0.19,0.37-0.3,0.54
							c-0.15,0.24-0.33,0.45-0.52,0.65c-0.05,0.05-0.09,0.09-0.14,0.14c-0.2,0.18-0.41,0.35-0.63,0.48l6.34-3.68
							c0.23-0.13,0.44-0.3,0.64-0.48c0.05-0.04,0.09-0.09,0.14-0.14c0.19-0.19,0.37-0.4,0.52-0.65c0,0,0-0.01,0.01-0.01
							c0.1-0.16,0.2-0.33,0.28-0.52c0-0.01,0.01-0.01,0.01-0.02c0.01-0.02,0.02-0.04,0.03-0.06c0.05-0.11,0.1-0.23,0.15-0.34
							c0.02-0.06,0.04-0.13,0.06-0.19c0.01-0.04,0.02-0.07,0.04-0.11c0.01-0.03,0.02-0.06,0.03-0.1c0.04-0.13,0.07-0.25,0.1-0.39
							c0.01-0.05,0.02-0.1,0.03-0.14c0.01-0.03,0.01-0.06,0.02-0.09c0.01-0.05,0.02-0.09,0.03-0.13c0.02-0.12,0.04-0.24,0.05-0.36
							c0.01-0.07,0.01-0.14,0.02-0.21c0-0.02,0.01-0.05,0.01-0.07c0-0.03,0.01-0.06,0.01-0.08c0.01-0.12,0.02-0.24,0.02-0.36
							c0.01-0.12,0.01-0.24,0.01-0.37c0-0.01,0-0.01,0-0.02l0.44-155.88C578.93,201.82,578.93,201.7,578.93,201.59z"/>
						<g>
							<path class="st9" d="M565.09,192.61c4.16,2.4,7.52,8.23,7.51,13l-0.44,155.88c-0.01,4.79-3.39,6.72-7.56,4.31l-80.25-46.33
								c-4.16-2.4-7.53-8.23-7.51-13.02l0.44-155.88c0.01-4.78,3.4-6.71,7.56-4.3L565.09,192.61z"/>
						</g>
					</g>
				</g>
				<g>
					<g>
						<g>
							<path class="st3" d="M562.82,208.47c1.25,0.72,2.27,2.48,2.27,3.92l-0.38,133.71c0,1.44-1.03,2.02-2.28,1.3l-75.83-43.78
								c-1.26-0.73-2.27-2.48-2.27-3.92l0.38-133.71c0-1.44,1.02-2.02,2.28-1.3L562.82,208.47z M561.83,336l0.35-122.68
								c0-1.32-0.93-2.95-2.09-3.62l-70.38-40.63c-1.16-0.67-2.1-0.13-2.11,1.19l-0.35,122.68c0,1.33,0.94,2.95,2.09,3.62
								l70.38,40.63C560.88,337.86,561.82,337.33,561.83,336"/>
						</g>
						<g>
							<path class="st6" d="M512.76,230.61c0.84,0.49,1.53,1.67,1.52,2.64l-0.06,20.38c0,0.97-0.69,1.36-1.53,0.87l-17.74-10.24
								c-0.84-0.49-1.53-1.67-1.52-2.64l0.06-20.38c0-0.97,0.69-1.36,1.53-0.87L512.76,230.61z"/>
						</g>
						<g>
							<path class="st6" d="M512.86,197.42c0.84,0.49,1.53,1.67,1.52,2.64l-0.06,20.38c0,0.97-0.69,1.37-1.53,0.88l-17.74-10.24
								c-0.84-0.49-1.53-1.67-1.52-2.64l0.06-20.38c0-0.97,0.69-1.36,1.53-0.87L512.86,197.42z"/>
						</g>
						<g>
							<path class="st6" d="M554.29,260.62c0.95,0.55,1.72,1.88,1.71,2.97c0,1.09-0.78,1.53-1.72,0.98l-24.32-14.04
								c-0.95-0.55-1.72-1.88-1.71-2.97c0-1.09,0.78-1.53,1.72-0.98L554.29,260.62z"/>
						</g>
						<g class="st0">
							<g>
								<path class="st21" d="M560.09,209.7c1.16,0.67,2.09,2.29,2.09,3.62L561.83,336c0,1.33-0.94,1.87-2.1,1.2l-70.38-40.63
									c-1.16-0.67-2.1-2.29-2.09-3.62l0.35-122.68c0-1.32,0.95-1.86,2.11-1.19L560.09,209.7z M514.13,286.83l0.06-20.38
									c0-0.98-0.68-2.16-1.52-2.64l-17.74-10.24c-0.84-0.49-1.53-0.1-1.53,0.88l-0.06,20.38c0,0.97,0.68,2.15,1.52,2.64
									l17.74,10.24C513.45,288.19,514.13,287.8,514.13,286.83 M514.23,253.63l0.06-20.38c0-0.97-0.68-2.15-1.52-2.64l-17.74-10.24
									c-0.84-0.49-1.53-0.1-1.53,0.87l-0.06,20.38c0,0.97,0.68,2.15,1.52,2.64l17.74,10.24
									C513.54,254.99,514.23,254.6,514.23,253.63 M514.32,220.43l0.06-20.38c0-0.97-0.68-2.15-1.52-2.64l-17.74-10.24
									c-0.84-0.49-1.53-0.1-1.53,0.87l-0.06,20.38c0,0.97,0.68,2.16,1.52,2.64l17.74,10.24
									C513.63,221.8,514.32,221.4,514.32,220.43 M554.14,311.68c0.95,0.55,1.72,0.11,1.72-0.98c0-1.09-0.76-2.42-1.71-2.97
									l-35.18-20.31c-0.95-0.55-1.72-0.11-1.72,0.98s0.76,2.42,1.71,2.97L554.14,311.68 M554.16,304.72
									c0.95,0.55,1.72,0.11,1.72-0.98c0-1.09-0.76-2.42-1.71-2.97L519,280.47c-0.95-0.55-1.72-0.11-1.72,0.98
									c0,1.09,0.76,2.42,1.71,2.97L554.16,304.72 M554.23,278.49c0.95,0.55,1.72,0.11,1.72-0.98c0-1.09-0.76-2.42-1.71-2.97
									l-35.18-20.31c-0.95-0.55-1.72-0.11-1.72,0.98c0,1.09,0.76,2.42,1.71,2.97L554.23,278.49 M554.35,238.33
									c0.95,0.55,1.72,0.11,1.72-0.98c0-1.09-0.76-2.42-1.71-2.97l-35.18-20.31c-0.95-0.55-1.72-0.11-1.72,0.98
									c0,1.09,0.76,2.42,1.71,2.97L554.35,238.33 M554.33,245.3c0.95,0.55,1.72,0.11,1.72-0.98c0-1.09-0.76-2.42-1.71-2.97
									l-35.18-20.31c-0.95-0.55-1.72-0.11-1.72,0.98c0,1.09,0.76,2.42,1.71,2.97L554.33,245.3 M554.25,271.52
									c0.95,0.55,1.72,0.11,1.72-0.98c0-1.09-0.76-2.41-1.71-2.96l-35.18-20.31c-0.95-0.55-1.72-0.11-1.72,0.98
									c0,1.1,0.76,2.42,1.71,2.97L554.25,271.52 M554.18,297.76c0.95,0.55,1.72,0.11,1.72-0.98s-0.76-2.42-1.71-2.97l-24.32-14.04
									c-0.95-0.55-1.72-0.11-1.72,0.98c0,1.09,0.76,2.42,1.71,2.97L554.18,297.76 M554.37,231.37c0.95,0.55,1.72,0.11,1.72-0.98
									c0-1.09-0.76-2.42-1.71-2.97l-24.32-14.04c-0.95-0.55-1.72-0.11-1.72,0.98c0,1.09,0.76,2.42,1.71,2.97L554.37,231.37
									 M554.27,264.57c0.95,0.55,1.72,0.11,1.72-0.98c0-1.09-0.76-2.42-1.71-2.97l-24.32-14.04c-0.95-0.55-1.72-0.11-1.72,0.98
									c0,1.09,0.76,2.42,1.71,2.97L554.27,264.57"/>
							</g>
							<g>
								<path class="st6" d="M554.27,267.58c0.95,0.55,1.72,1.87,1.71,2.96c0,1.1-0.78,1.53-1.72,0.98l-35.18-20.31
									c-0.95-0.55-1.72-1.87-1.71-2.97c0-1.09,0.78-1.52,1.72-0.98L554.27,267.58z"/>
							</g>
							<g>
								<path class="st6" d="M554.34,241.35c0.95,0.55,1.72,1.88,1.71,2.97c0,1.09-0.78,1.53-1.72,0.98l-35.18-20.31
									c-0.95-0.55-1.72-1.88-1.71-2.97c0-1.09,0.78-1.53,1.72-0.98L554.34,241.35z"/>
							</g>
							<g>
								<path class="st6" d="M554.36,234.38c0.95,0.55,1.72,1.88,1.71,2.97c0,1.09-0.78,1.53-1.72,0.98l-35.18-20.31
									c-0.95-0.55-1.72-1.88-1.71-2.97c0-1.09,0.78-1.53,1.72-0.98L554.36,234.38z"/>
							</g>
							<g>
								<path class="st6" d="M554.38,227.42c0.95,0.55,1.72,1.88,1.71,2.97c0,1.09-0.78,1.53-1.72,0.98l-24.32-14.04
									c-0.95-0.55-1.72-1.88-1.71-2.97c0-1.09,0.78-1.53,1.72-0.98L554.38,227.42z"/>
							</g>
						</g>
						<g>
							<path class="st6" d="M554.25,274.54c0.95,0.55,1.72,1.88,1.71,2.97c0,1.09-0.78,1.53-1.72,0.98l-35.18-20.31
								c-0.95-0.55-1.72-1.88-1.71-2.97c0-1.09,0.78-1.53,1.72-0.98L554.25,274.54z"/>
						</g>
						<g>
							<path class="st6" d="M512.67,263.81c0.84,0.49,1.53,1.67,1.52,2.64l-0.06,20.38c0,0.97-0.69,1.36-1.53,0.87l-17.74-10.24
								c-0.84-0.49-1.53-1.67-1.52-2.64l0.06-20.38c0-0.98,0.69-1.37,1.53-0.88L512.67,263.81z"/>
						</g>
						<g>
							<g>
								<path class="st6" d="M554.15,307.73c0.95,0.55,1.72,1.88,1.71,2.97c0,1.09-0.78,1.53-1.72,0.98l-35.18-20.31
									c-0.95-0.55-1.72-1.88-1.71-2.97c0-1.09,0.78-1.53,1.72-0.98L554.15,307.73z"/>
							</g>
							<g>
								<path class="st6" d="M554.17,300.78c0.95,0.55,1.72,1.88,1.71,2.97c0,1.09-0.78,1.53-1.72,0.98l-35.18-20.31
									c-0.95-0.55-1.72-1.88-1.71-2.97c0-1.09,0.78-1.53,1.72-0.98L554.17,300.78z"/>
							</g>
							<g>
								<path class="st6" d="M554.19,293.81c0.95,0.55,1.72,1.88,1.71,2.97c0,1.09-0.78,1.53-1.72,0.98l-24.32-14.04
									c-0.95-0.55-1.72-1.88-1.71-2.97c0-1.09,0.78-1.53,1.72-0.98L554.19,293.81z"/>
							</g>
						</g>
					</g>
					<path class="st22" d="M562.07,250.16l2.92-3.51l0.1-34.25c0-1.44-1.01-3.2-2.27-3.92l-8.49-4.9l-1.52,1.93l7.28,4.2
						c0.14,0.08,0.29,0.18,0.42,0.29c-0.14-0.11-0.28-0.21-0.42-0.29l-7.28-4.2l-13.52,17.17l15.09,8.71
						c0.95,0.55,1.72,0.11,1.72-0.98l0,0c0,1.09-0.78,1.53-1.72,0.98l-15.09-8.71l-5.41,6.87l20.47,11.82
						c0.95,0.55,1.72,1.88,1.71,2.97c0,0.41-0.11,0.73-0.3,0.93c0.19-0.21,0.3-0.53,0.3-0.93c0-1.09-0.76-2.42-1.71-2.97
						l-20.47-11.82l-25.19,31.97l3.99,2.3c0.11,0.06,0.21,0.13,0.31,0.21c-0.1-0.08-0.2-0.15-0.31-0.21l-3.99-2.3l-24.33,30.89
						l-0.02,7.31c0,1.44,1.01,3.2,2.27,3.92l20.96,12.1l4.86-5.84l-23.07-13.32c-0.04-0.03-0.09-0.06-0.13-0.09
						c0.04,0.03,0.09,0.06,0.13,0.09l23.07,13.32l22.58-27.15l-5.12-2.95c-0.11-0.06-0.22-0.11-0.32-0.15
						c0.1,0.04,0.21,0.08,0.32,0.15l5.12,2.95l10.84-13.04l-26.77-15.45c-0.12-0.07-0.23-0.12-0.35-0.16
						c0.11,0.04,0.23,0.09,0.35,0.16l26.77,15.45l3.91-4.71l-15.79-9.12l15.79,9.12L562.07,250.16l0.1-36.84
						c0-0.99-0.52-2.15-1.27-2.95c0.75,0.8,1.27,1.96,1.27,2.95L562.07,250.16z M528.24,247.56L528.24,247.56
						c0-0.41,0.11-0.73,0.3-0.93C528.35,246.83,528.25,247.15,528.24,247.56z M555.57,235.66c-0.31-0.54-0.74-1.01-1.21-1.28
						C554.83,234.66,555.26,235.12,555.57,235.66c0.31,0.54,0.5,1.14,0.5,1.69C556.07,236.8,555.88,236.2,555.57,235.66z"/>
				</g>
			</g>
			<g>
				<g>
					<g class="st0">
						<path class="st13" d="M563.22,122.34c0,0.01,0,0.01-0.01,0.02c-0.02,0.06-0.05,0.11-0.08,0.16c-0.01,0.01-0.01,0.02-0.02,0.03
							c-0.04,0.05-0.08,0.11-0.14,0.15c-0.03,0.03-0.08,0.06-0.12,0.09c-0.04,0.03-0.07,0.05-0.11,0.08
							c-0.16,0.09-0.35,0.16-0.54,0.21c-0.03,0.01-0.06,0.01-0.09,0.02c-0.2,0.04-0.4,0.07-0.61,0.07c-0.01,0-0.02,0-0.02,0
							c-0.22,0-0.44-0.02-0.64-0.07c-0.01,0-0.02,0-0.02-0.01c-0.21-0.05-0.41-0.12-0.58-0.22c-0.35-0.2-0.52-0.46-0.52-0.73
							l-0.15,51.41c0,0.26,0.17,0.53,0.52,0.73c0.08,0.05,0.17,0.09,0.26,0.12c0.07,0.03,0.14,0.05,0.21,0.07
							c0.03,0.01,0.07,0.02,0.11,0.03c0.01,0,0.02,0,0.02,0.01c0.02,0,0.04,0.01,0.06,0.01c0.06,0.01,0.12,0.02,0.18,0.03
							c0.06,0.01,0.11,0.01,0.17,0.02c0.06,0,0.12,0.01,0.17,0.01c0.02,0,0.04,0,0.07,0c0.01,0,0.02,0,0.02,0c0.03,0,0.06,0,0.09,0
							c0.07,0,0.13-0.01,0.2-0.01c0.08-0.01,0.15-0.02,0.23-0.03c0.03-0.01,0.06-0.02,0.1-0.02c0.03-0.01,0.06-0.01,0.09-0.02
							c0.05-0.01,0.11-0.02,0.15-0.04c0.14-0.05,0.27-0.1,0.39-0.17c0.01,0,0.01-0.01,0.02-0.01c0.03-0.02,0.06-0.04,0.09-0.07
							c0.04-0.03,0.09-0.06,0.12-0.09c0,0,0.01-0.01,0.01-0.01c0.04-0.04,0.08-0.08,0.11-0.12c0.01-0.01,0.01-0.02,0.02-0.03
							c0.01-0.01,0.01-0.02,0.02-0.03c0.01-0.02,0.02-0.03,0.03-0.05c0.02-0.03,0.03-0.07,0.05-0.1c0-0.01,0-0.01,0-0.02
							c0-0.01,0-0.01,0.01-0.02c0.01-0.02,0.01-0.04,0.02-0.06c0.01-0.03,0.01-0.07,0.01-0.1c0-0.01,0-0.01,0-0.02l0.15-51.41
							C563.25,122.22,563.24,122.28,563.22,122.34z"/>
						<g>
							<path class="st11" d="M562.73,121.43c0.69,0.4,0.7,1.05,0.01,1.45c-0.69,0.4-1.81,0.4-2.51,0c-0.69-0.4-0.69-1.05,0-1.45
								C560.92,121.03,562.04,121.03,562.73,121.43z"/>
						</g>
					</g>
				</g>
				<g>
					<g class="st0">
						<path class="st13" d="M524.83,100.79c0,0.01,0,0.01-0.01,0.02c-0.02,0.06-0.05,0.11-0.08,0.16c-0.01,0.01-0.01,0.02-0.02,0.03
							c-0.04,0.05-0.08,0.1-0.14,0.15c-0.03,0.03-0.08,0.06-0.12,0.09c-0.04,0.03-0.07,0.05-0.11,0.08
							c-0.16,0.09-0.35,0.16-0.54,0.21c-0.03,0.01-0.06,0.01-0.08,0.02c-0.2,0.04-0.4,0.07-0.61,0.07c-0.01,0-0.02,0-0.02,0
							c-0.22,0-0.44-0.02-0.64-0.07c-0.01,0-0.02,0-0.02-0.01c-0.21-0.05-0.41-0.12-0.58-0.22c-0.35-0.2-0.52-0.46-0.52-0.73
							l-0.15,51.41c0,0.26,0.17,0.53,0.52,0.73c0.08,0.05,0.17,0.09,0.26,0.12c0.07,0.03,0.14,0.05,0.21,0.07
							c0.03,0.01,0.07,0.02,0.11,0.03c0.01,0,0.02,0,0.02,0.01c0.02,0,0.04,0.01,0.06,0.01c0.06,0.01,0.12,0.02,0.18,0.03
							c0.06,0.01,0.11,0.01,0.17,0.02c0.06,0,0.12,0.01,0.17,0.01c0.02,0,0.04,0,0.06,0c0.01,0,0.02,0,0.02,0c0.03,0,0.06,0,0.09,0
							c0.07,0,0.13-0.01,0.2-0.01c0.08-0.01,0.15-0.02,0.23-0.03c0.03-0.01,0.06-0.02,0.1-0.02c0.03-0.01,0.06-0.01,0.09-0.02
							c0.05-0.01,0.11-0.02,0.15-0.04c0.14-0.05,0.27-0.1,0.39-0.17c0.01,0,0.01-0.01,0.02-0.01c0.03-0.02,0.06-0.04,0.09-0.07
							c0.04-0.03,0.09-0.06,0.12-0.09c0,0,0.01-0.01,0.01-0.01c0.04-0.04,0.08-0.08,0.11-0.12c0.01-0.01,0.01-0.02,0.02-0.03
							c0.01-0.01,0.01-0.02,0.02-0.03c0.01-0.02,0.02-0.03,0.03-0.05c0.02-0.03,0.03-0.07,0.05-0.1c0-0.01,0-0.01,0-0.02
							c0-0.01,0-0.01,0.01-0.02c0.01-0.02,0.01-0.04,0.02-0.06c0.01-0.03,0.01-0.07,0.01-0.1c0-0.01,0-0.01,0-0.02l0.15-51.41
							C524.86,100.67,524.84,100.73,524.83,100.79z"/>
						<g>
							<path class="st11" d="M524.33,99.87c0.69,0.4,0.7,1.05,0.01,1.45c-0.69,0.4-1.81,0.4-2.51,0c-0.69-0.4-0.69-1.05,0-1.45
								C522.52,99.48,523.64,99.48,524.33,99.87z"/>
						</g>
					</g>
				</g>
			</g>
			<g>
				<g>
					<g class="st0">
						<path class="st13" d="M553.44,130.5c0,0.01,0,0.01-0.01,0.02c-0.02,0.06-0.05,0.11-0.08,0.16c-0.01,0.01-0.01,0.02-0.02,0.03
							c-0.04,0.05-0.08,0.11-0.14,0.15c-0.03,0.03-0.08,0.06-0.12,0.09c-0.04,0.03-0.07,0.05-0.11,0.08
							c-0.16,0.09-0.35,0.16-0.54,0.21c-0.03,0.01-0.06,0.01-0.08,0.02c-0.2,0.04-0.4,0.07-0.61,0.07c-0.01,0-0.02,0-0.02,0
							c-0.22,0-0.44-0.02-0.64-0.07c-0.01,0-0.02,0-0.02-0.01c-0.21-0.05-0.41-0.12-0.58-0.22c-0.35-0.2-0.52-0.46-0.52-0.73
							l-0.15,51.41c0,0.26,0.17,0.53,0.52,0.73c0.08,0.05,0.17,0.09,0.26,0.12c0.07,0.03,0.14,0.05,0.21,0.07
							c0.03,0.01,0.07,0.02,0.11,0.03c0.01,0,0.02,0,0.02,0.01c0.02,0,0.04,0.01,0.06,0.01c0.06,0.01,0.12,0.02,0.18,0.03
							c0.06,0.01,0.11,0.01,0.17,0.02c0.06,0,0.12,0.01,0.17,0.01c0.02,0,0.04,0,0.06,0c0.01,0,0.02,0,0.02,0c0.03,0,0.06,0,0.09,0
							c0.07,0,0.13-0.01,0.2-0.01c0.08-0.01,0.15-0.02,0.23-0.03c0.03-0.01,0.06-0.02,0.1-0.02c0.03-0.01,0.06-0.01,0.09-0.02
							c0.05-0.01,0.11-0.02,0.15-0.04c0.14-0.05,0.27-0.1,0.39-0.17c0.01,0,0.01-0.01,0.02-0.01c0.03-0.02,0.06-0.04,0.09-0.07
							c0.04-0.03,0.09-0.06,0.12-0.09c0,0,0.01-0.01,0.01-0.01c0.04-0.04,0.08-0.08,0.11-0.12c0.01-0.01,0.01-0.02,0.02-0.03
							c0.01-0.01,0.01-0.02,0.02-0.03c0.01-0.02,0.02-0.03,0.03-0.05c0.02-0.03,0.03-0.07,0.05-0.1c0-0.01,0-0.01,0-0.02
							c0-0.01,0-0.01,0.01-0.02c0.01-0.02,0.01-0.04,0.02-0.06c0.01-0.03,0.01-0.07,0.01-0.1c0-0.01,0-0.01,0-0.02l0.15-51.41
							C553.47,130.38,553.46,130.44,553.44,130.5z"/>
						<g>
							<path class="st11" d="M552.94,129.59c0.69,0.4,0.7,1.05,0.01,1.45c-0.69,0.4-1.81,0.4-2.51,0c-0.69-0.4-0.69-1.05,0-1.45
								C551.13,129.19,552.26,129.19,552.94,129.59z"/>
						</g>
					</g>
				</g>
				<g>
					<g class="st0">
						<path class="st13" d="M515.04,108.95c0,0.01,0,0.01-0.01,0.02c-0.02,0.06-0.05,0.11-0.08,0.16c-0.01,0.01-0.01,0.02-0.02,0.03
							c-0.04,0.05-0.08,0.11-0.14,0.15c-0.03,0.03-0.08,0.06-0.12,0.09c-0.04,0.03-0.07,0.05-0.11,0.08
							c-0.16,0.09-0.35,0.16-0.54,0.21c-0.03,0.01-0.06,0.01-0.08,0.02c-0.2,0.04-0.4,0.07-0.61,0.07c-0.01,0-0.02,0-0.02,0
							c-0.22,0-0.44-0.02-0.64-0.07c-0.01,0-0.02,0-0.02-0.01c-0.21-0.05-0.41-0.12-0.58-0.22c-0.35-0.2-0.52-0.46-0.52-0.73
							l-0.15,51.41c0,0.26,0.17,0.53,0.52,0.73c0.08,0.05,0.17,0.09,0.26,0.12c0.07,0.03,0.14,0.05,0.21,0.07
							c0.03,0.01,0.07,0.02,0.11,0.03c0.01,0,0.02,0,0.02,0.01c0.02,0,0.04,0.01,0.06,0.01c0.06,0.01,0.12,0.02,0.18,0.03
							c0.06,0.01,0.11,0.01,0.17,0.02c0.06,0,0.12,0.01,0.17,0.01c0.02,0,0.04,0,0.07,0c0.01,0,0.02,0,0.02,0c0.03,0,0.06,0,0.09,0
							c0.07,0,0.13-0.01,0.2-0.01c0.08-0.01,0.15-0.02,0.23-0.03c0.03-0.01,0.06-0.02,0.1-0.02c0.03-0.01,0.06-0.01,0.09-0.02
							c0.05-0.01,0.11-0.02,0.15-0.04c0.14-0.05,0.27-0.1,0.39-0.17c0.01,0,0.01-0.01,0.02-0.01c0.03-0.02,0.06-0.04,0.09-0.07
							c0.04-0.03,0.09-0.06,0.12-0.09c0,0,0.01-0.01,0.01-0.01c0.04-0.04,0.08-0.08,0.11-0.12c0.01-0.01,0.01-0.02,0.02-0.03
							c0.01-0.01,0.01-0.02,0.02-0.03c0.01-0.02,0.02-0.03,0.03-0.05c0.02-0.03,0.03-0.07,0.05-0.1c0-0.01,0-0.01,0-0.02
							c0-0.01,0-0.01,0.01-0.02c0.01-0.02,0.01-0.04,0.02-0.06c0.01-0.03,0.01-0.07,0.01-0.1c0-0.01,0-0.01,0-0.02l0.15-51.41
							C515.07,108.83,515.06,108.89,515.04,108.95z"/>
						<g>
							<path class="st11" d="M514.55,108.03c0.69,0.4,0.7,1.05,0.01,1.45c-0.69,0.4-1.81,0.4-2.51,0c-0.69-0.4-0.69-1.05,0-1.45
								C512.73,107.64,513.86,107.64,514.55,108.03z"/>
						</g>
					</g>
				</g>
			</g>
		</g>
		<g>
			<path class="st15" d="M474.22,301.45c0.75,0.43,0.75,1.13,0.01,1.57l-60.84,35.35c-0.74,0.43-1.95,0.43-2.7,0l-108.35-62.56
				c-0.75-0.43-0.75-1.13-0.01-1.57l60.84-35.35c0.74-0.43,1.95-0.43,2.7,0L474.22,301.45z"/>
		</g>
		<g>
			<g class="st0">
				<g>
					<polygon class="st23" points="448.13,322.49 448.12,325.51 439.39,330.58 439.4,327.57 					"/>
				</g>
				<g>
					<polygon class="st24" points="457.2,337.84 457.19,340.86 439.39,330.58 439.4,327.57 					"/>
				</g>
				<g>
					<polygon class="st25" points="442.28,331.76 442.27,334.78 437.58,332.07 437.59,329.05 					"/>
				</g>
				<g>
					<polygon class="st23" points="437.59,329.05 437.58,332.07 432.92,334.77 432.93,331.76 					"/>
				</g>
				<g>
					<polygon class="st25" points="465.93,332.77 465.92,335.79 448.12,325.51 448.13,322.49 					"/>
				</g>
				<g>
					<polygon class="st24" points="437.62,334.47 437.61,337.48 432.92,334.77 432.93,331.76 					"/>
				</g>
				<g>
					<polygon class="st26" points="442.28,331.76 442.27,334.78 437.61,337.48 437.62,334.47 					"/>
				</g>
				<g>
					<polygon class="st25" points="436.69,335.01 436.69,338.02 431.99,335.31 432,332.3 					"/>
				</g>
				<g>
					<polygon class="st23" points="432,332.3 431.99,335.31 427.33,338.02 427.34,335 					"/>
				</g>
				<g>
					<polygon class="st25" points="448.46,335.33 448.45,338.35 443.76,335.64 443.77,332.62 					"/>
				</g>
				<g>
					<polygon class="st23" points="443.77,332.62 443.76,335.64 439.1,338.34 439.11,335.33 					"/>
				</g>
				<g>
					<polygon class="st8" points="436.69,335.01 432.03,337.71 427.34,335 432,332.3 					"/>
				</g>
				<g>
					<polygon class="st26" points="436.69,335.01 436.69,338.02 432.03,340.73 432.03,337.71 					"/>
				</g>
				<g>
					<polygon class="st24" points="432.03,337.71 432.03,340.73 427.33,338.02 427.34,335 					"/>
				</g>
				<g>
					<polygon class="st26" points="465.93,332.77 465.92,335.79 457.19,340.86 457.2,337.84 					"/>
				</g>
				<g>
					<polygon class="st8" points="465.93,332.77 457.2,337.84 439.4,327.57 448.13,322.49 					"/>
				</g>
				<g>
					<polygon class="st8" points="448.46,335.33 443.8,338.04 439.11,335.33 443.77,332.62 					"/>
				</g>
				<g>
					<polygon class="st26" points="448.46,335.33 448.45,338.35 443.79,341.05 443.8,338.04 					"/>
				</g>
				<g>
					<polygon class="st24" points="443.8,338.04 443.79,341.05 439.1,338.34 439.11,335.33 					"/>
				</g>
				<g>
					<polygon class="st25" points="431.11,338.25 431.1,341.27 426.41,338.56 426.41,335.54 					"/>
				</g>
				<g>
					<polygon class="st23" points="426.41,335.54 426.41,338.56 421.75,341.27 421.76,338.25 					"/>
				</g>
				<g>
					<polygon class="st25" points="442.88,338.58 442.87,341.59 438.17,338.88 438.18,335.87 					"/>
				</g>
				<g>
					<polygon class="st23" points="438.18,335.87 438.17,338.88 433.51,341.59 433.52,338.57 					"/>
				</g>
				<g>
					<polygon class="st25" points="454.64,338.9 454.63,341.91 449.94,339.2 449.95,336.19 					"/>
				</g>
				<g>
					<polygon class="st23" points="449.95,336.19 449.94,339.2 445.28,341.91 445.29,338.9 					"/>
				</g>
				<g>
					<polygon class="st26" points="431.11,338.25 431.1,341.27 426.44,343.98 426.45,340.96 					"/>
				</g>
				<g>
					<polygon class="st8" points="431.11,338.25 426.45,340.96 421.75,338.25 426.41,335.54 					"/>
				</g>
				<g>
					<polygon class="st24" points="426.45,340.96 426.44,343.98 421.75,341.27 421.75,338.25 					"/>
				</g>
				<g>
					<polygon class="st26" points="442.88,338.58 442.87,341.59 438.21,344.3 438.22,341.28 					"/>
				</g>
				<g>
					<polygon class="st24" points="438.22,341.28 438.21,344.3 433.51,341.59 433.52,338.57 					"/>
				</g>
				<g>
					<polygon class="st26" points="454.64,338.9 454.63,341.91 449.97,344.62 449.98,341.6 					"/>
				</g>
				<g>
					<polygon class="st8" points="454.64,338.9 449.98,341.6 445.29,338.9 449.95,336.19 					"/>
				</g>
				<g>
					<polygon class="st24" points="449.98,341.6 449.97,344.62 445.28,341.91 445.29,338.9 					"/>
				</g>
				<g>
					<polygon class="st25" points="437.29,341.82 437.28,344.84 432.59,342.13 432.6,339.11 					"/>
				</g>
				<g>
					<polygon class="st23" points="432.6,339.11 432.59,342.13 427.93,344.84 427.94,341.82 					"/>
				</g>
				<g>
					<polygon class="st25" points="449.05,342.14 449.05,345.16 444.36,342.45 444.36,339.43 					"/>
				</g>
				<g>
					<polygon class="st23" points="444.36,339.43 444.36,342.45 439.7,345.16 439.71,342.14 					"/>
				</g>
				<g>
					<polygon class="st8" points="437.29,341.82 432.63,344.53 427.94,341.82 432.6,339.11 					"/>
				</g>
				<g>
					<polygon class="st24" points="432.63,344.53 432.62,347.55 427.93,344.84 427.94,341.82 					"/>
				</g>
				<g>
					<polygon class="st26" points="437.29,341.82 437.28,344.84 432.62,347.55 432.63,344.53 					"/>
				</g>
				<g>
					<polygon class="st8" points="449.05,342.14 444.4,344.85 439.71,342.14 444.36,339.43 					"/>
				</g>
				<g>
					<polygon class="st24" points="444.4,344.85 444.39,347.87 439.7,345.16 439.71,342.14 					"/>
				</g>
				<g>
					<polygon class="st26" points="449.05,342.14 449.05,345.16 444.39,347.87 444.4,344.85 					"/>
				</g>
				<g>
					<polygon class="st25" points="443.47,345.39 443.46,348.41 438.77,345.7 438.78,342.68 					"/>
				</g>
				<g>
					<polygon class="st23" points="438.78,342.68 438.77,345.7 434.11,348.41 434.12,345.39 					"/>
				</g>
				<g>
					<polygon class="st26" points="443.47,345.39 443.46,348.41 438.8,351.11 438.81,348.1 					"/>
				</g>
				<g>
					<polygon class="st24" points="438.81,348.1 438.8,351.11 434.11,348.41 434.12,345.39 					"/>
				</g>
				<g>
					<polygon class="st8" points="443.47,345.39 438.81,348.1 434.12,345.39 438.78,342.68 					"/>
				</g>
				<g>
					<path class="st27" d="M448.49,320.95l20.11,11.61L436.86,351l-20.11-11.61L448.49,320.95z M457.2,337.84l8.73-5.07l-17.8-10.28
						l-8.73,5.07L457.2,337.84 M432.03,337.71l4.66-2.71L432,332.3l-4.66,2.71L432.03,337.71 M438.22,341.28l4.66-2.71l-4.69-2.71
						l-4.66,2.71L438.22,341.28 M437.62,334.47l4.66-2.71l-4.69-2.71l-4.66,2.71L437.62,334.47 M426.45,340.96l4.66-2.71l-4.69-2.71
						l-4.66,2.71L426.45,340.96 M443.8,338.04l4.66-2.71l-4.69-2.71l-4.66,2.71L443.8,338.04 M432.63,344.53l4.66-2.71l-4.69-2.71
						l-4.66,2.71L432.63,344.53 M444.4,344.85l4.66-2.71l-4.69-2.71l-4.66,2.71L444.4,344.85 M449.98,341.6l4.66-2.71l-4.69-2.71
						l-4.66,2.71L449.98,341.6 M438.81,348.1l4.66-2.71l-4.69-2.71l-4.66,2.71L438.81,348.1"/>
				</g>
				<g>
					<polygon class="st8" points="442.28,331.76 437.62,334.47 432.93,331.76 437.59,329.05 					"/>
				</g>
				<g>
					<polygon class="st8" points="442.88,338.58 438.22,341.28 433.52,338.57 438.18,335.87 					"/>
				</g>
				<g>
					<polygon class="st23" points="468.6,332.56 468.59,335.57 436.85,354.02 436.86,351 					"/>
				</g>
				<g>
					<polygon class="st25" points="436.86,351 436.85,354.02 416.74,342.41 416.75,339.39 					"/>
				</g>
			</g>
		</g>
		<g>
			<g>
				<g class="st0">
					<path class="st13" d="M381.49,147.04c0,0.01-0.01,0.02-0.01,0.04c-0.03,0.1-0.09,0.2-0.15,0.3c-0.01,0.02-0.02,0.04-0.04,0.05
						c-0.07,0.1-0.15,0.19-0.25,0.28c-0.06,0.06-0.14,0.11-0.21,0.16c-0.07,0.05-0.12,0.1-0.2,0.14c-0.29,0.17-0.63,0.29-0.98,0.38
						c-0.05,0.01-0.1,0.03-0.15,0.04c-0.36,0.08-0.73,0.12-1.11,0.12c-0.01,0-0.03,0-0.04,0c-0.4,0-0.79-0.05-1.16-0.13
						c-0.01,0-0.03-0.01-0.04-0.01c-0.38-0.09-0.73-0.22-1.04-0.4c-0.62-0.36-0.93-0.83-0.93-1.31l-0.26,92.77
						c0,0.48,0.31,0.95,0.93,1.31c0.14,0.08,0.3,0.16,0.46,0.22c0.13,0.05,0.25,0.09,0.39,0.13c0.06,0.02,0.13,0.03,0.19,0.05
						c0.01,0,0.03,0.01,0.04,0.01c0.03,0.01,0.07,0.02,0.1,0.02c0.1,0.02,0.21,0.04,0.32,0.06c0.1,0.01,0.21,0.03,0.31,0.03
						c0.1,0.01,0.21,0.01,0.32,0.02c0.04,0,0.08,0,0.12,0c0.01,0,0.03,0,0.04,0c0.06,0,0.11,0,0.17,0c0.12,0,0.24-0.01,0.36-0.02
						c0.14-0.01,0.27-0.03,0.41-0.06c0.06-0.01,0.11-0.03,0.17-0.04c0.05-0.01,0.1-0.02,0.15-0.04c0.09-0.02,0.19-0.04,0.28-0.07
						c0.25-0.08,0.49-0.18,0.7-0.31c0.01-0.01,0.03-0.02,0.04-0.02c0.06-0.04,0.11-0.08,0.16-0.12c0.07-0.05,0.15-0.1,0.22-0.16
						c0.01-0.01,0.01-0.01,0.02-0.01c0.07-0.07,0.14-0.14,0.2-0.21c0.01-0.02,0.02-0.04,0.04-0.05c0.01-0.02,0.02-0.03,0.04-0.05
						c0.02-0.03,0.04-0.06,0.06-0.08c0.03-0.06,0.06-0.12,0.09-0.18c0-0.01,0.01-0.02,0.01-0.03c0-0.01,0.01-0.02,0.01-0.04
						c0.01-0.04,0.03-0.08,0.03-0.11c0.01-0.06,0.02-0.12,0.02-0.18c0-0.01,0-0.02,0-0.03l0.26-92.77
						C381.54,146.83,381.52,146.94,381.49,147.04z"/>
					<g>
						<path class="st11" d="M380.59,145.4c1.25,0.72,1.26,1.9,0.03,2.61c-1.24,0.72-3.27,0.72-4.52,0c-1.24-0.72-1.25-1.89,0-2.61
							C377.33,144.68,379.35,144.68,380.59,145.4z"/>
					</g>
				</g>
			</g>
			<g>
				<g>
					<g class="st0">
						<g>
							<polygon class="st20" points="377.1,191.89 338.76,169.61 338.63,124.33 376.97,146.61 							"/>
						</g>
						<g>
							<polygon class="st20" points="376.97,146.61 338.63,124.33 378.05,101.57 416.39,123.85 							"/>
						</g>
						<g>
							<polygon class="st28" points="416.39,123.85 416.52,169.13 377.1,191.89 376.97,146.61 							"/>
						</g>
					</g>
				</g>
				<g>
					<path class="st15" d="M398.55,144.9c5.15-2.98,8.71-1.97,8.73,2.81c0.01,2.5-0.59,5.13-3.79,10.36l-4.21,6.92l8.64-4.99
						l0.02,5.77l-17.43,10.06l-0.01-4.56l8.36-13.84c1.78-2.94,2.04-4.26,2.03-5.33c0-1.65-0.97-2.09-2.89-0.98
						c-1.63,0.94-3.09,2.64-3.99,4.81l-4.71-0.3C390.98,151.41,394.14,147.45,398.55,144.9z"/>
				</g>
				<g>
					<path class="st15" d="M355.83,143.89c5.15,2.97,8.69,8.07,8.68,12.84c-0.01,2.5-0.62,4.43-3.83,5.96l-4.24,2.05l8.64,4.99
						l-0.02,5.77l-17.43-10.06l0.01-4.56l8.4-4.17c1.8-0.88,2.06-1.91,2.06-2.97c0-1.65-0.95-3.2-2.87-4.3
						c-1.63-0.94-3.11-0.95-4,0.19l-4.69-5.73C348.24,141.64,351.42,141.35,355.83,143.89z"/>
				</g>
			</g>
		</g>
	</g>
	<g>
		<g>
			<g class="st0">
				<g>
					<g>
						<path class="st6" d="M343.27,234.28l30.68,17.71l-0.13,46.71l-30.68-17.71L343.27,234.28z M358.5,283.42
							c5.87,3.39,10.65-1.2,10.68-10.25c0.03-9.06-4.71-19.14-10.58-22.53c-5.87-3.39-10.65,1.2-10.68,10.25
							C347.89,269.95,352.63,280.03,358.5,283.42"/>
					</g>
					<g>
						<path class="st20" d="M358.59,250.64c5.87,3.39,10.61,13.47,10.58,22.53c-0.03,9.06-4.81,13.64-10.68,10.25
							c-5.87-3.39-10.61-13.47-10.58-22.53C347.94,251.83,352.72,247.25,358.59,250.64z"/>
					</g>
					<g>
						<polygon class="st29" points="343.27,234.28 351.25,229.64 381.93,247.35 373.95,251.99 						"/>
					</g>
					<g>
						<polygon class="st29" points="373.95,251.99 381.93,247.35 381.8,294.06 373.82,298.7 						"/>
					</g>
				</g>
			</g>
		</g>
		<g>
			<g class="st0">
				<g>
					<g>
						<path class="st6" d="M349.91,252.61l30.68,17.71l-0.13,46.71l-30.68-17.71L349.91,252.61z M365.14,301.75
							c5.87,3.39,10.65-1.2,10.68-10.25c0.03-9.06-4.71-19.14-10.58-22.53c-5.87-3.39-10.65,1.2-10.68,10.25
							C354.53,288.28,359.27,298.37,365.14,301.75"/>
					</g>
					<g>
						<path class="st20" d="M365.23,268.97c5.87,3.39,10.61,13.47,10.58,22.53c-0.03,9.06-4.81,13.64-10.68,10.25
							c-5.87-3.39-10.61-13.47-10.58-22.53C354.58,270.17,359.36,265.58,365.23,268.97z"/>
					</g>
					<g>
						<polygon class="st29" points="349.91,252.61 357.89,247.98 388.57,265.69 380.59,270.33 						"/>
					</g>
					<g>
						<polygon class="st29" points="380.59,270.33 388.57,265.69 388.44,312.4 380.46,317.04 						"/>
					</g>
				</g>
			</g>
		</g>
	</g>
	<g>
		<g>
			<path class="st30" d="M323.91,259.72c0,0,6.6-4.82,8.08-3.45c1.48,1.37-2.66,5.34-2.66,5.34L323.91,259.72z"/>
			<path class="st30" d="M319.74,269.13c0,0,6.85,6.19,8.14,6.59c1.29,0.4,15.67-3.36,16.89-9c1.21-5.65-20.39-7.11-20.39-7.11
				L319.74,269.13z"/>
		</g>
		<path class="st3" d="M270.95,190.47c1.86,0.82,15.52,46.35,18.21,47.44c2.68,1.09,36.13,21.3,36.13,21.3s1.47,8.94-4.35,12.75
			c0,0-43.6-21.34-46.15-25.22c-2.55-3.88-8.69-25.7-8.69-25.7L270.95,190.47z"/>
		<path class="st31" d="M215.28,459.83c0,0-3.55,5.46-2.64,7.86c0.91,2.4,26.01,20.62,30.73,13.67
			c4.72-6.96-14.64-19.11-14.98-21.53L215.28,459.83z"/>
		<path class="st31" d="M271.27,456.02c0,0-3.55,5.46-2.64,7.86c0.91,2.4,26.01,20.62,30.73,13.67
			c4.72-6.96-14.64-19.11-14.98-21.53L271.27,456.02z"/>
		<g>
			<path class="st21" d="M277.8,278.54c0,0,7.13,137.02,6.65,177.7c0,0-6.33,2.78-13.27-0.22c0,0-10.06-88.51-32.04-175.61
				L277.8,278.54z"/>
			<path class="st21" d="M221.95,280.41c-5.07,51.52,1.4,93.66-6.67,179.42c0,0,2.44,2.18,13.11,0
				c0.61-0.08,28.39-112.66,29.67-177.98L221.95,280.41z"/>
		</g>
		<path class="st31" d="M234.5,147.3c-0.34,2.27-0.42,4.82-2.07,6.42c-1.06,1.03-2.62,1.47-3.57,2.6c-1.68,2-0.72,5.07-1.46,7.58
			c-1.08,3.69-5.64,5.66-6.34,9.44c-0.37,2.01,0.51,4.09,1.85,5.64c1.34,1.54,3.11,2.65,4.85,3.72c4.85,3.01,9.71,6.02,14.56,9.03
			c2.5,1.55,5.38,3.17,8.24,2.45c2.88-0.73,4.69-3.61,7.32-4.99c2.75-1.45,6.05-1.12,9.16-0.9c3.06,0.21,6.23,0.24,9.06-0.92
			c2.84-1.16,5.27-3.8,5.31-6.86c0.04-2.53-1.49-4.83-1.77-7.34c-0.51-4.53,3.05-9.26,1.14-13.41c-1.12-2.44-3.81-3.75-5.4-5.91
			c-2.67-3.62-1.76-8.65-2.62-13.07c-0.86-4.44-3.71-8.46-7.62-10.73c-9.48-5.53-22.32,0.52-27.65,9.17
			C235.97,141.67,234.92,144.43,234.5,147.3z"/>
		<path class="st3" d="M278.96,281.67l-7.41-49.03c0,0,11.16-26.79-0.6-42.17l-12.83-5.03l-13.05,0l-13.19,4.33l-0.09,42.28
			c0,0-9.71,38.91-12.26,55.58C219.53,287.63,236.67,305.62,278.96,281.67z"/>
		<g>
			<g>
				<g>
					<path class="st30" d="M272.24,159.22c-0.01,0.34-0.03,0.69-0.08,1.03c-0.25,3.41-1.09,6.66-2.92,8.99
						c-1.45,1.86-2.84,3.1-4.12,4.07c-0.43,0.33-0.85,0.62-1.24,0.9c-3.53,2.48-5.94,3.64-5.8,12.07c0,0-6.08,6.38-12.92,0.36
						c0,0-0.25-7.9-2.97-17.13c-0.32-1.12-0.69-2.25-1.09-3.39c-0.23-0.63-0.46-1.27-0.72-1.91c-0.15-0.38-0.29-0.77-0.46-1.17
						c0,0-0.1-1.01-0.23-2.58c-0.36-4.31-0.98-12.81-0.48-16.01c2.36-15.04,28.33-14.9,31.05-1.53
						C270.26,142.93,272.62,151.33,272.24,159.22z"/>
					<path class="st30" d="M257.5,177.34c0.15-0.03,0.26-0.16,0.26-0.32c0-0.17-0.15-0.31-0.32-0.3c-2.73,0.09-5.44-0.54-7.85-1.83
						c-0.15-0.08-0.34-0.02-0.42,0.13c-0.08,0.15-0.02,0.34,0.13,0.42c2.5,1.34,5.32,2,8.16,1.9
						C257.47,177.34,257.49,177.34,257.5,177.34z"/>
				</g>
				<g>
					<path class="st32" d="M263.52,157.9c0.38-0.11,0.78-0.22,1.17-0.09c0.36,0.12,0.61,0.42,0.67,0.8c0.13,0.81-0.58,1.37-1.22,1.7
						c-0.11,0.06-0.25,0.04-0.33-0.08c-0.06-0.1-0.04-0.27,0.08-0.33c0.45-0.23,1.05-0.59,1.01-1.17c-0.02-0.22-0.15-0.41-0.37-0.47
						c-0.29-0.08-0.59,0.02-0.87,0.1C263.36,158.44,263.23,157.99,263.52,157.9z"/>
					<path class="st33" d="M271.79,158c0.04,0.71-0.79,1.33-1.86,1.39c-1.07,0.06-1.97-0.46-2.01-1.17s0.79-1.33,1.86-1.39
						C270.85,156.77,271.75,157.3,271.79,158z"/>
					<path class="st33" d="M259.68,158.42c0.04,0.71-0.79,1.33-1.86,1.39c-1.07,0.06-1.97-0.46-2.01-1.17s0.79-1.33,1.86-1.39
						C258.74,157.19,259.64,157.71,259.68,158.42z"/>
					<path class="st31" d="M260.77,149.7c-1.22,0.04-2.4,0.4-3.45,1.03c-0.25,0.15-0.32,0.53-0.15,0.76
						c0.18,0.25,0.49,0.31,0.76,0.15c0.12-0.07,0.24-0.14,0.36-0.2c0.02-0.01,0.05-0.03,0.07-0.04c-0.05,0.02-0.04,0.02,0.02-0.01
						c0.07-0.03,0.14-0.06,0.2-0.09c0.24-0.1,0.48-0.19,0.73-0.26c0.52-0.15,0.94-0.22,1.51-0.24c0.29-0.01,0.54-0.29,0.51-0.58
						C261.32,149.91,261.08,149.69,260.77,149.7z"/>
					<path class="st31" d="M266.06,149.44c1.21,0.1,2.38,0.52,3.39,1.19c0.24,0.16,0.29,0.54,0.12,0.76
						c-0.19,0.24-0.51,0.29-0.76,0.12c-0.12-0.08-0.23-0.15-0.35-0.22c-0.02-0.01-0.05-0.03-0.07-0.04
						c0.05,0.03,0.04,0.02-0.02-0.01c-0.07-0.03-0.13-0.07-0.2-0.1c-0.23-0.11-0.47-0.21-0.72-0.3c-0.51-0.18-0.92-0.26-1.49-0.31
						c-0.28-0.02-0.53-0.31-0.48-0.6C265.5,149.62,265.75,149.41,266.06,149.44z"/>
					<path class="st34" d="M265.85,162.81c0.13-0.11,0,0-0.03,0.02c-0.03,0.03-0.07,0.05-0.1,0.08c-0.07,0.05-0.15,0.11-0.23,0.16
						c-0.08,0.05-0.16,0.09-0.24,0.14c0,0,0,0,0,0c0,0,0,0-0.01,0c-0.05,0.02-0.09,0.04-0.14,0.06c-0.16,0.07-0.33,0.12-0.5,0.16
						c-0.02,0.01-0.04,0.01-0.05,0.01c-0.04,0.01-0.08,0.01-0.12,0.02c-0.09,0.01-0.18,0.02-0.28,0.03c-0.09,0.01-0.19,0-0.28,0
						c-0.01,0-0.01,0-0.01,0c0,0,0,0,0,0c-0.04-0.01-0.09-0.01-0.13-0.01c-0.19-0.02-0.37-0.06-0.55-0.11c-0.01,0-0.01,0-0.02,0
						c-0.04-0.01-0.08-0.03-0.12-0.04c-0.1-0.04-0.19-0.08-0.28-0.12c-0.08-0.04-0.15-0.08-0.23-0.12c-0.01,0-0.03-0.02-0.05-0.03
						c-0.04-0.02-0.07-0.05-0.11-0.07c-0.27-0.2-0.67-0.23-0.9,0.06c-0.2,0.25-0.23,0.69,0.06,0.9c0.79,0.58,1.73,0.89,2.71,0.84
						c0.97-0.05,1.85-0.46,2.57-1.1c0.25-0.22,0.19-0.71-0.06-0.9C266.45,162.51,266.12,162.57,265.85,162.81z"/>
					<g>
						<path class="st31" d="M268.29,153.83c0,0.77-0.49,1.39-1.1,1.39c-0.61,0-1.1-0.62-1.1-1.39c0-0.77,0.49-1.39,1.1-1.39
							C267.79,152.43,268.29,153.06,268.29,153.83z"/>
						<path class="st15" d="M267.78,153.08c0,0.15-0.1,0.27-0.22,0.27c-0.12,0-0.22-0.12-0.22-0.27s0.1-0.27,0.22-0.27
							C267.68,152.81,267.78,152.93,267.78,153.08z"/>
					</g>
					<g>
						<path class="st31" d="M261.01,153.83c0,0.77-0.49,1.39-1.1,1.39c-0.61,0-1.1-0.62-1.1-1.39c0-0.77,0.49-1.39,1.1-1.39
							C260.52,152.43,261.01,153.06,261.01,153.83z"/>
						<path class="st15" d="M260.5,153.08c0,0.15-0.1,0.27-0.22,0.27c-0.12,0-0.22-0.12-0.22-0.27s0.1-0.27,0.22-0.27
							C260.41,152.81,260.5,152.93,260.5,153.08z"/>
					</g>
				</g>
				<g>
					<path class="st30" d="M235.36,160.13c1.65,2.76,4.68,3.99,6.75,2.75c2.07-1.24,2.41-4.49,0.76-7.25s-4.68-3.99-6.75-2.75
						C234.04,154.12,233.7,157.37,235.36,160.13z"/>
					<path class="st32" d="M236.26,154.83c1.27-0.49,2.69-0.16,3.76,0.65c1.22,0.94,1.9,2.37,2.36,3.81
						c0.18,0.58-0.7,0.91-0.89,0.33c-0.38-1.2-0.9-2.42-1.89-3.26c-0.83-0.71-1.96-1.05-3.01-0.64
						C236.02,155.94,235.69,155.05,236.26,154.83z"/>
					<path class="st32" d="M237.8,158.1c0.27-0.62,0.79-1.12,1.42-1.35c0.59-0.21,1.26-0.18,1.83,0.07c0.23,0.1,0.35,0.4,0.24,0.62
						c-0.11,0.23-0.38,0.35-0.62,0.24c-0.05-0.02-0.1-0.04-0.15-0.06c-0.01,0-0.02-0.01-0.02-0.01c-0.03-0.01-0.05-0.01-0.08-0.02
						c-0.11-0.02-0.22-0.04-0.33-0.05c0,0,0,0,0,0c-0.03,0-0.07,0-0.1,0c-0.06,0-0.11,0.01-0.17,0.02c-0.03,0-0.05,0.01-0.08,0.01
						c-0.01,0-0.01,0-0.02,0c-0.06,0.01-0.11,0.03-0.16,0.05c-0.05,0.02-0.11,0.04-0.16,0.07c0,0-0.03,0.01-0.04,0.02
						c-0.02,0.01-0.04,0.02-0.04,0.02c-0.11,0.06-0.2,0.14-0.3,0.22c0,0-0.01,0.01-0.01,0.01c-0.02,0.02-0.04,0.04-0.06,0.07
						c-0.04,0.05-0.08,0.09-0.11,0.14c-0.02,0.03-0.04,0.06-0.06,0.09c0,0,0,0,0,0c0,0,0,0,0,0.01c-0.03,0.06-0.06,0.12-0.09,0.18
						c-0.1,0.23-0.4,0.35-0.62,0.24C237.81,158.61,237.7,158.34,237.8,158.1z"/>
				</g>
			</g>
		</g>
		<g>
			<path class="st30" d="M239.94,301.07c0,0,7.75,2.58,7.49,4.59c-0.26,2-5.89,0.93-5.89,0.93L239.94,301.07z"/>
			<path class="st30" d="M229.86,303.12c0,0-1.08,9.17-0.65,10.45c0.42,1.28,11.82,10.83,17.13,8.54c5.3-2.28-6.02-20.74-6.02-20.74
				L229.86,303.12z"/>
		</g>
		<g>
			<path class="st35" d="M255.01,242.96c0,0,17.91,65.18-30.12,55.63L255.01,242.96z"/>
			<path class="st6" d="M211.6,224.03l43.4,18.94c0,0,4.56,53.06-16.58,56.1c-20.45,2.94-35.51-10.36-37.03-24.19
				C198.88,251.99,211.6,224.03,211.6,224.03z"/>
			<path class="st6" d="M249.25,251.23c-0.02,0-0.04,0-0.06,0c-0.49-0.03-0.85-0.45-0.82-0.93c0.04-0.58,3.4-57.92-13.83-60.57
				c-2.55-0.39-4.82,0.26-6.95,2c-10.88,8.87-12.69,41.99-12.71,42.32c-0.02,0.49-0.46,0.85-0.93,0.84
				c-0.49-0.02-0.86-0.44-0.84-0.93c0.07-1.39,1.87-34.24,13.36-43.6c2.5-2.04,5.31-2.84,8.33-2.37c18.81,2.89,15.48,60,15.32,62.43
				C250.1,250.87,249.71,251.23,249.25,251.23z"/>
		</g>
		<path class="st3" d="M231.87,189.77c-3.17,1.36-15.47,43.19-15.43,55.12c0.03,8.99,12.09,58.73,12.09,58.73s8.37,0.66,13.42-1.74
			l-7.87-58.64l4.39-30.23L231.87,189.77z"/>
		<path class="st3" d="M234.39,244c0.01-0.03,0.02-0.06,0.02-0.1c0-2.79,0.52-5.55,1.54-8.16c0.14-0.36-0.44-0.51-0.57-0.16
			c-0.76,1.94-1.25,3.99-1.45,6.06c-0.09-0.46-0.19-0.91-0.29-1.37c-0.08-0.37-0.66-0.22-0.57,0.16c1.25,5.76,2.12,11.59,2.61,17.46
			c0.03,0.38,0.63,0.38,0.6,0C235.89,253.23,235.26,248.6,234.39,244z"/>
		<path class="st31" d="M262.86,141.95c-2.85,2.62-7.49,3.04-10.77,0.97c-0.01,2.26-1.21,4.39-2.81,5.99
			c-1.6,1.6-3.59,2.75-5.55,3.89c-0.88,0.51-1.81,1.03-2.83,1.03c-1.21,0-2.34-0.77-3-1.79c-0.66-1.02-0.92-2.25-1-3.46
			c-0.32-4.46,1.61-9.03,5.04-11.9c1.92-1.61,4.24-2.69,6.62-3.51c4.01-1.39,8.41-2.1,12.52-1.04c2.51,0.65,4.85,1.96,6.72,3.75
			c0.45,0.43,0.99,0.9,1.31,1.43c0.29,0.49,0.05,0.94-0.18,1.42c-0.51,1.05-1.36,1.92-2.36,2.5
			C265.46,141.87,264.14,142.17,262.86,141.95z"/>
	</g>
	<g>
		<g>
			<g class="st0">
				<path class="st36" d="M176.62,293.71c0-0.14-0.01-0.28-0.02-0.42c-0.01-0.3-0.03-0.59-0.04-0.89c-0.02-0.35-0.03-0.7-0.05-1.05
					c-0.02-0.27-0.04-0.54-0.06-0.81c-0.02-0.32-0.05-0.63-0.08-0.95c-0.02-0.21-0.03-0.41-0.05-0.62c-0.04-0.45-0.1-0.9-0.15-1.35
					c-0.03-0.26-0.05-0.52-0.09-0.78c-0.01-0.09-0.02-0.18-0.03-0.26c-0.1-0.81-0.22-1.63-0.35-2.45c0-0.02-0.01-0.04-0.01-0.05
					c-0.02-0.11-0.04-0.23-0.06-0.34c-0.11-0.69-0.23-1.38-0.36-2.07c-0.02-0.12-0.05-0.24-0.07-0.37c-0.06-0.33-0.13-0.65-0.2-0.98
					c-0.08-0.4-0.16-0.8-0.24-1.2c-0.05-0.22-0.11-0.44-0.16-0.67c-0.08-0.36-0.16-0.71-0.25-1.07c-0.07-0.27-0.12-0.55-0.19-0.82
					c-0.08-0.33-0.17-0.66-0.26-0.98c-0.09-0.36-0.19-0.72-0.28-1.08c-0.05-0.18-0.09-0.35-0.14-0.53
					c-0.13-0.47-0.27-0.94-0.41-1.41c-0.09-0.3-0.17-0.6-0.26-0.91c-0.03-0.09-0.05-0.17-0.08-0.26c-0.26-0.84-0.53-1.68-0.81-2.52
					c0-0.01-0.01-0.02-0.01-0.03c-0.02-0.07-0.05-0.15-0.08-0.22c-0.25-0.75-0.51-1.49-0.78-2.24c-0.04-0.12-0.09-0.23-0.13-0.35
					c-0.1-0.28-0.21-0.56-0.32-0.85c-0.15-0.4-0.29-0.8-0.45-1.19c-0.1-0.25-0.2-0.5-0.3-0.76c-0.12-0.31-0.25-0.62-0.38-0.94
					c-0.09-0.23-0.18-0.45-0.27-0.68c-0.19-0.45-0.38-0.89-0.57-1.34c-0.11-0.24-0.21-0.49-0.31-0.73
					c-0.04-0.09-0.07-0.18-0.11-0.26c-0.35-0.79-0.71-1.58-1.08-2.36c-0.01-0.03-0.03-0.06-0.04-0.09c-0.1-0.2-0.2-0.4-0.29-0.61
					c-0.3-0.62-0.59-1.25-0.9-1.87c-0.05-0.09-0.1-0.18-0.14-0.28c-0.25-0.49-0.5-0.97-0.75-1.46c-0.2-0.39-0.4-0.79-0.61-1.18
					c-0.04-0.07-0.08-0.14-0.12-0.21c-0.68-1.27-1.38-2.52-2.11-3.76c-0.06-0.1-0.12-0.21-0.18-0.32c-0.07-0.12-0.15-0.23-0.22-0.35
					c-1.03-1.74-2.11-3.46-3.22-5.14c-0.06-0.09-0.11-0.19-0.17-0.28c-0.1-0.15-0.21-0.3-0.32-0.45c-0.9-1.34-1.82-2.66-2.77-3.95
					c0,0,0,0,0,0c-0.01-0.01-0.01-0.02-0.02-0.03c-0.67-0.91-1.36-1.81-2.06-2.7c-0.03-0.04-0.06-0.08-0.09-0.12
					c-0.5-0.64-1.01-1.26-1.53-1.89c-0.11-0.14-0.22-0.28-0.34-0.42c-0.01-0.01-0.01-0.01-0.02-0.02c-0.62-0.75-1.25-1.48-1.89-2.21
					c-0.03-0.04-0.06-0.07-0.1-0.11c-0.19-0.22-0.39-0.43-0.58-0.65c-0.4-0.45-0.81-0.91-1.22-1.35c-0.08-0.08-0.16-0.16-0.24-0.25
					c-0.28-0.3-0.56-0.58-0.83-0.87c-0.31-0.32-0.61-0.65-0.92-0.97c-0.12-0.12-0.23-0.23-0.35-0.35c-0.3-0.31-0.61-0.61-0.92-0.91
					c-0.26-0.26-0.52-0.52-0.79-0.78c-0.15-0.14-0.31-0.28-0.46-0.43c-0.33-0.32-0.67-0.62-1-0.93c-0.23-0.21-0.45-0.43-0.68-0.64
					c-0.18-0.16-0.37-0.32-0.55-0.48c-0.34-0.3-0.68-0.59-1.01-0.89c-0.2-0.17-0.4-0.36-0.61-0.53c-0.22-0.19-0.45-0.36-0.67-0.55
					c-0.33-0.27-0.66-0.54-0.99-0.81c-0.17-0.14-0.34-0.28-0.51-0.42c-0.28-0.22-0.56-0.43-0.85-0.65
					c-0.31-0.24-0.61-0.47-0.92-0.71c-0.12-0.09-0.25-0.19-0.37-0.28c-0.38-0.28-0.76-0.54-1.14-0.81
					c-0.26-0.19-0.52-0.38-0.79-0.56c-0.07-0.05-0.13-0.1-0.2-0.14c-0.69-0.47-1.38-0.93-2.07-1.37c-0.01,0-0.01-0.01-0.02-0.01
					c-0.05-0.03-0.11-0.06-0.16-0.1c-0.63-0.4-1.26-0.78-1.89-1.16c-0.16-0.09-0.32-0.19-0.48-0.28c-0.52-0.3-1.04-0.59-1.55-0.87
					c-0.2-0.11-0.39-0.2-0.59-0.3c-0.27-0.14-0.53-0.28-0.8-0.41c-0.21-0.1-0.41-0.22-0.62-0.32c-0.33-0.16-0.66-0.31-0.98-0.46
					c-0.23-0.11-0.47-0.22-0.7-0.33c-0.1-0.04-0.19-0.09-0.29-0.14c-0.65-0.29-1.31-0.57-1.95-0.83c0,0,0,0,0,0c0,0,0,0,0,0
					c-0.66-0.26-1.31-0.51-1.97-0.74c-0.09-0.03-0.17-0.05-0.25-0.08c-0.23-0.08-0.47-0.15-0.7-0.23c-0.33-0.11-0.67-0.23-1-0.33
					c-0.17-0.05-0.33-0.09-0.49-0.14c-0.29-0.08-0.57-0.16-0.86-0.24c-0.22-0.06-0.45-0.13-0.66-0.18c-0.23-0.06-0.46-0.1-0.69-0.15
					c-0.29-0.07-0.57-0.13-0.86-0.19c-0.15-0.03-0.31-0.07-0.46-0.1c-0.27-0.05-0.53-0.09-0.8-0.13c-0.33-0.06-0.66-0.12-0.98-0.16
					c-0.12-0.02-0.24-0.04-0.35-0.06c-0.27-0.04-0.54-0.05-0.81-0.08c-0.35-0.04-0.7-0.08-1.05-0.11c-0.1-0.01-0.21-0.02-0.31-0.03
					c-0.24-0.02-0.47-0.01-0.71-0.02c-0.41-0.02-0.83-0.04-1.23-0.04c-0.12,0-0.24-0.01-0.35-0.01c-0.18,0-0.35,0.02-0.53,0.03
					c-0.52,0.01-1.03,0.03-1.53,0.07c-0.15,0.01-0.31,0.01-0.47,0.02c-0.11,0.01-0.22,0.04-0.34,0.05
					c-0.77,0.08-1.54,0.19-2.28,0.33c-0.06,0.01-0.13,0.02-0.2,0.03c-0.01,0-0.02,0.01-0.03,0.01c-1.07,0.22-2.09,0.51-3.1,0.85
					c-0.09,0.03-0.19,0.04-0.28,0.08c-0.07,0.03-0.14,0.06-0.21,0.09c-0.44,0.16-0.86,0.34-1.29,0.53
					c-0.21,0.09-0.42,0.17-0.62,0.27c-0.62,0.29-1.23,0.6-1.82,0.95l-12.13,7.05c0.59-0.34,1.2-0.66,1.82-0.95
					c0.21-0.1,0.42-0.18,0.63-0.27c0.42-0.18,0.85-0.36,1.28-0.52c0.16-0.06,0.33-0.11,0.49-0.16c1-0.34,2.03-0.64,3.1-0.85
					c0.08-0.02,0.15-0.02,0.23-0.04c0.75-0.14,1.51-0.25,2.28-0.33c0.26-0.03,0.53-0.05,0.8-0.07c0.51-0.04,1.02-0.06,1.53-0.07
					c0.29-0.01,0.58-0.02,0.88-0.01c0.41,0,0.82,0.02,1.24,0.04c0.34,0.02,0.67,0.03,1.01,0.05c0.35,0.03,0.7,0.07,1.05,0.11
					c0.38,0.04,0.77,0.08,1.16,0.14c0.33,0.05,0.66,0.11,0.99,0.16c0.42,0.07,0.83,0.15,1.25,0.23c0.28,0.06,0.57,0.12,0.85,0.19
					c0.45,0.1,0.9,0.22,1.35,0.34c0.29,0.08,0.57,0.15,0.86,0.24c0.49,0.14,0.99,0.3,1.48,0.46c0.24,0.08,0.47,0.15,0.71,0.23
					c0.73,0.25,1.47,0.52,2.22,0.82c0,0,0,0,0,0c0.74,0.3,1.49,0.62,2.24,0.96c0.23,0.11,0.47,0.22,0.7,0.33
					c0.53,0.25,1.06,0.51,1.6,0.78c0.26,0.13,0.53,0.27,0.8,0.41c0.71,0.37,1.42,0.76,2.14,1.17c0.79,0.46,1.58,0.94,2.37,1.44
					c0.05,0.03,0.11,0.06,0.16,0.1c0.77,0.49,1.53,1,2.29,1.52c0.26,0.18,0.52,0.37,0.78,0.56c0.51,0.36,1.01,0.72,1.52,1.1
					c0.31,0.23,0.61,0.47,0.92,0.7c0.46,0.35,0.91,0.7,1.36,1.06c0.33,0.27,0.66,0.54,0.99,0.81c0.43,0.35,0.85,0.71,1.28,1.08
					c0.34,0.29,0.68,0.58,1.01,0.88c0.42,0.37,0.83,0.74,1.24,1.12c0.33,0.31,0.67,0.62,1,0.93c0.42,0.4,0.83,0.8,1.24,1.2
					c0.31,0.3,0.61,0.6,0.92,0.91c0.43,0.43,0.85,0.87,1.28,1.32c0.28,0.29,0.56,0.58,0.83,0.87c0.49,0.52,0.97,1.06,1.45,1.6
					c0.19,0.22,0.39,0.43,0.58,0.65c0.68,0.77,1.34,1.54,2,2.34c0.11,0.13,0.21,0.26,0.31,0.39c0.55,0.67,1.1,1.35,1.65,2.04
					c0.7,0.89,1.38,1.79,2.06,2.7c0.01,0.01,0.01,0.02,0.02,0.03c0.95,1.29,1.87,2.61,2.77,3.95c0.16,0.24,0.33,0.49,0.49,0.73
					c1.12,1.68,2.19,3.4,3.22,5.14c0.13,0.22,0.27,0.45,0.4,0.67c0.72,1.24,1.43,2.49,2.11,3.76c0.25,0.46,0.49,0.93,0.73,1.4
					c0.25,0.48,0.51,0.97,0.75,1.45c0.36,0.71,0.71,1.43,1.05,2.15c0.09,0.2,0.19,0.4,0.29,0.59c0.42,0.9,0.83,1.81,1.23,2.72
					c0.11,0.24,0.21,0.49,0.31,0.73c0.29,0.67,0.57,1.35,0.85,2.02c0.13,0.31,0.25,0.62,0.38,0.93c0.26,0.65,0.51,1.3,0.75,1.95
					c0.11,0.28,0.22,0.57,0.32,0.85c0.32,0.86,0.62,1.72,0.91,2.59c0.02,0.07,0.05,0.15,0.08,0.22c0.31,0.94,0.61,1.87,0.9,2.81
					c0.09,0.3,0.18,0.6,0.26,0.91c0.19,0.65,0.38,1.29,0.55,1.94c0.1,0.36,0.19,0.72,0.28,1.08c0.16,0.6,0.31,1.21,0.45,1.81
					c0.08,0.36,0.17,0.71,0.25,1.07c0.14,0.62,0.27,1.24,0.4,1.86c0.07,0.33,0.14,0.66,0.2,0.98c0.16,0.81,0.3,1.62,0.43,2.43
					c0.02,0.12,0.04,0.23,0.06,0.35c0.15,0.93,0.27,1.85,0.39,2.77c0.03,0.26,0.06,0.52,0.09,0.78c0.07,0.66,0.14,1.32,0.2,1.97
					c0.03,0.32,0.05,0.63,0.08,0.95c0.05,0.62,0.08,1.24,0.11,1.86c0.01,0.3,0.03,0.59,0.04,0.89c0.03,0.88,0.05,1.75,0.05,2.62
					c0,0.91-0.03,1.8-0.07,2.68c-0.01,0.25-0.03,0.49-0.05,0.74c-0.03,0.6-0.07,1.2-0.13,1.79c-0.03,0.34-0.07,0.67-0.1,1.01
					c-0.05,0.5-0.11,0.99-0.18,1.48c-0.05,0.36-0.1,0.71-0.16,1.06c-0.07,0.45-0.15,0.89-0.23,1.33c-0.07,0.39-0.15,0.78-0.23,1.16
					c-0.08,0.39-0.17,0.78-0.27,1.17c-0.11,0.45-0.23,0.89-0.35,1.33c-0.1,0.35-0.19,0.69-0.3,1.03c-0.16,0.53-0.33,1.04-0.51,1.55
					c-0.1,0.27-0.19,0.55-0.29,0.82c-0.32,0.85-0.67,1.68-1.04,2.48c-0.04,0.08-0.09,0.16-0.13,0.25c-0.51,1.06-1.06,2.06-1.66,3.01
					c-0.05,0.07-0.09,0.15-0.14,0.23c-0.5,0.78-1.03,1.51-1.59,2.21c-0.13,0.17-0.27,0.33-0.41,0.5c-0.54,0.65-1.09,1.27-1.68,1.85
					c-0.04,0.04-0.08,0.09-0.13,0.13c-0.63,0.61-1.28,1.16-1.96,1.69c-0.16,0.13-0.33,0.25-0.5,0.38c-0.69,0.51-1.4,1-2.14,1.43
					l12.13-7.05c0.74-0.43,1.45-0.92,2.14-1.43c0.17-0.12,0.33-0.25,0.5-0.38c0.68-0.53,1.34-1.09,1.96-1.69
					c0.04-0.04,0.08-0.09,0.13-0.13c0.59-0.58,1.14-1.2,1.68-1.85c0.14-0.17,0.27-0.33,0.41-0.5c0.55-0.7,1.09-1.43,1.59-2.21
					c0.01-0.02,0.03-0.04,0.05-0.06c0.03-0.05,0.06-0.11,0.09-0.16c0.6-0.95,1.15-1.95,1.66-3.01c0.03-0.06,0.06-0.11,0.09-0.17
					c0.01-0.03,0.02-0.06,0.04-0.08c0.37-0.79,0.72-1.62,1.04-2.48c0.03-0.07,0.06-0.14,0.09-0.21c0.07-0.2,0.13-0.41,0.2-0.61
					c0.18-0.51,0.35-1.02,0.51-1.55c0.04-0.14,0.1-0.27,0.14-0.41c0.06-0.2,0.1-0.41,0.16-0.61c0.12-0.44,0.24-0.88,0.35-1.33
					c0.04-0.18,0.1-0.36,0.14-0.55c0.05-0.2,0.08-0.42,0.12-0.62c0.08-0.38,0.16-0.77,0.23-1.16c0.04-0.2,0.09-0.4,0.12-0.6
					c0.04-0.24,0.07-0.49,0.11-0.73c0.06-0.35,0.11-0.7,0.16-1.06c0.02-0.18,0.06-0.36,0.08-0.54c0.04-0.31,0.06-0.62,0.1-0.93
					c0.04-0.34,0.07-0.67,0.1-1.01c0.01-0.14,0.03-0.27,0.04-0.4c0.04-0.45,0.06-0.92,0.09-1.38c0.01-0.25,0.03-0.49,0.05-0.74
					c0-0.06,0.01-0.12,0.01-0.18c0.03-0.77,0.05-1.56,0.06-2.36c0-0.05,0-0.09,0-0.14C176.65,295.18,176.64,294.45,176.62,293.71z"
					/>
				<g>
					<path class="st21" d="M115.87,218.7c-26.94-15.56-48.86-3.07-48.95,27.91c-0.09,30.96,21.69,68.68,48.63,84.23
						c26.96,15.56,48.88,3.07,48.96-27.89C164.61,271.99,142.83,234.27,115.87,218.7z M115.57,324.99
						c-24.09-13.91-43.63-47.76-43.55-75.43c0.08-27.69,19.75-38.9,43.84-25c24.1,13.91,43.64,47.76,43.56,75.46
						C159.34,327.7,139.67,338.91,115.57,324.99"/>
				</g>
				<g>
					<path class="st15" d="M115.86,224.56c24.1,13.91,43.64,47.76,43.56,75.46c-0.08,27.68-19.75,38.89-43.85,24.97
						c-24.09-13.91-43.63-47.76-43.55-75.43C72.1,221.87,91.77,210.66,115.86,224.56z M115.59,319.73
						c21.57,12.45,39.19,2.43,39.26-22.36c0.07-24.79-17.43-55.09-39-67.54c-21.56-12.45-39.18-2.42-39.25,22.36
						C76.53,276.99,94.03,307.29,115.59,319.73"/>
				</g>
				<g>
					<path class="st21" d="M115.84,229.83c-21.56-12.45-39.18-2.42-39.25,22.36c-0.07,24.79,17.43,55.09,38.99,67.53
						c21.57,12.45,39.19,2.43,39.26-22.36C154.92,272.59,137.41,242.29,115.84,229.83z M130.33,290.56c-0.1,0.47-0.5,0.61-0.96,0.34
						l-8.23-4.75l-3.96-2.28l-4.07-2.35l-4.25-2.45l-3.3-1.9l-0.63,3.68c1.84,1.55,3.26,4.07,3.64,6.42l12.92,7.46
						c0.46-2.28,2.43-3.07,4.78-1.72c2.69,1.55,4.86,5.32,4.85,8.4c-0.01,3.09-2.19,4.34-4.88,2.78c-2.35-1.36-4.31-4.4-4.76-7.22
						l-12.92-7.46c-0.46,2.3-2.43,3.07-4.78,1.72c-2.69-1.55-4.86-5.3-4.85-8.4c0.01-2.75,1.75-4.02,4.01-3.19l0.78-4.58
						l-6.89-27.19l-9.07-5.24c-0.55-0.32-0.99-1.08-0.99-1.69c0-0.62,0.44-0.87,0.99-0.55l9.77,5.64c0.41,0.24,0.78,0.75,0.92,1.29
						l1.2,4.69l12.37,7.14l5.19,3l5.33,3.08l5.44,3.14l5.07,2.93c0.3,0.17,0.58,0.49,0.77,0.87c0.18,0.37,0.25,0.76,0.19,1.06
						L130.33,290.56z"/>
					<polygon class="st21" points="109.22,273.11 109.71,277.29 112.07,278.66 111.85,274.62 					"/>
					<polygon class="st21" points="111.13,260.89 107.56,258.83 108.05,263.09 111.34,264.98 					"/>
					<polygon class="st21" points="122.2,284.5 124.34,285.74 124.91,282.17 122.48,280.76 					"/>
					<polygon class="st21" points="118.17,276.03 120.69,277.48 121.05,272.83 118.19,271.18 					"/>
					<polygon class="st21" points="126.32,286.88 128.59,288.19 129.32,284.71 126.89,283.31 					"/>
					<polygon class="st21" points="122.65,278.62 125.24,280.11 125.95,275.67 123,273.96 					"/>
					<polygon class="st21" points="118.19,268.94 121.2,270.68 121.5,266.88 118.21,264.98 					"/>
					<polygon class="st21" points="127.21,281.25 129.76,282.72 130.68,278.39 127.93,276.81 					"/>
					<polygon class="st21" points="123.45,268.01 123.17,271.81 126.27,273.61 126.85,269.97 					"/>
					<polygon class="st21" points="114.02,279.78 116.21,281.05 116.22,277.15 113.81,275.76 					"/>
					<polygon class="st21" points="118.16,282.17 120.23,283.37 120.52,279.63 118.17,278.27 					"/>
					<polygon class="st21" points="113.69,273.44 116.22,274.9 116.24,270.06 113.42,268.43 					"/>
					<polygon class="st21" points="113.3,266.12 116.24,267.82 116.25,263.85 113.08,262.02 					"/>
					<polygon class="st21" points="128.25,274.75 131.11,276.4 131.86,272.86 128.84,271.12 					"/>
					<polygon class="st21" points="104.29,270.26 105.45,274.83 107.74,276.16 107.24,271.97 					"/>
					<polygon class="st21" points="106.36,264.35 102.18,261.94 103.62,267.63 106.96,269.56 					"/>
					<polygon class="st21" points="111.47,267.3 108.34,265.5 108.94,270.7 111.73,272.31 					"/>
					<polygon class="st21" points="105.58,257.69 100.34,254.67 101.51,259.31 106.08,261.95 					"/>
				</g>
				<g>
					<path class="st15" d="M108.86,279.07l-3.3-1.9l-0.63,3.68c1.84,1.55,3.26,4.07,3.64,6.42l12.92,7.46
						c0.46-2.28,2.43-3.07,4.78-1.72c2.69,1.55,4.86,5.32,4.85,8.4c-0.01,3.09-2.19,4.34-4.88,2.78c-2.35-1.36-4.31-4.4-4.76-7.22
						l-12.92-7.46c-0.46,2.3-2.43,3.07-4.78,1.72c-2.69-1.55-4.86-5.3-4.85-8.4c0.01-2.75,1.75-4.02,4.01-3.19l0.78-4.58
						l-6.89-27.19l-9.07-5.24c-0.55-0.32-0.99-1.08-0.99-1.69c0-0.62,0.44-0.87,0.99-0.55l9.77,5.64c0.41,0.24,0.78,0.75,0.92,1.29
						l1.2,4.69l12.37,7.14l5.19,3l5.33,3.08l5.44,3.14l5.07,2.93c0.3,0.17,0.58,0.49,0.77,0.87c0.18,0.37,0.25,0.76,0.19,1.06
						l-3.71,17.33c-0.1,0.47-0.5,0.61-0.96,0.34l-8.23-4.75l-3.96-2.28l-4.07-2.35L108.86,279.07z M103.62,267.63l3.34,1.93
						l-0.6-5.2l-4.18-2.41L103.62,267.63 M100.34,254.67l1.17,4.65l4.56,2.63l-0.5-4.26L100.34,254.67 M127.93,276.81l-0.71,4.44
						l2.54,1.47l0.92-4.32L127.93,276.81 M111.73,272.31l-0.26-5.01l-3.13-1.81l0.6,5.2L111.73,272.31 M123,273.96l-0.34,4.66
						l2.58,1.49l0.71-4.44L123,273.96 M111.13,260.89l-3.57-2.06l0.5,4.26l3.28,1.9L111.13,260.89 M123.45,268.01l-0.29,3.8
						l3.11,1.79l0.57-3.64L123.45,268.01 M128.84,271.12l-0.59,3.63l2.86,1.65l0.75-3.53L128.84,271.12 M118.19,271.18l-0.01,4.85
						l2.51,1.45l0.36-4.65L118.19,271.18 M116.22,274.9l0.01-4.85l-2.82-1.63l0.27,5.01L116.22,274.9 M104.29,270.26l1.16,4.57
						l2.29,1.32l-0.5-4.19L104.29,270.26 M118.21,264.98l-0.01,3.96l3.01,1.74l0.3-3.8L118.21,264.98 M116.25,263.85l-3.17-1.83
						l0.22,4.1l2.94,1.7L116.25,263.85 M129.32,284.71l-2.43-1.4l-0.57,3.57l2.27,1.31L129.32,284.71 M112.07,278.66l-0.22-4.03
						l-2.62-1.52l0.48,4.19L112.07,278.66 M122.48,280.76l-0.29,3.74l2.14,1.24l0.57-3.57L122.48,280.76 M116.21,281.05l0.01-3.9
						l-2.4-1.39l0.21,4.03L116.21,281.05 M118.17,278.27l-0.01,3.9l2.07,1.2l0.29-3.74L118.17,278.27"/>
				</g>
			</g>
		</g>
	</g>
	<g>
		<g>
			<g class="st0">
				<path class="st4" d="M486.35,331.47c-0.02,0.18-0.03,0.36-0.06,0.54c-0.03,0.15-0.07,0.3-0.11,0.44
					c-0.05,0.17-0.09,0.34-0.15,0.51c-0.05,0.14-0.12,0.28-0.18,0.42c-0.08,0.18-0.16,0.36-0.25,0.54
					c-0.07,0.13-0.15,0.26-0.23,0.38c-0.12,0.2-0.26,0.4-0.41,0.6c-0.09,0.12-0.18,0.23-0.28,0.35c-0.22,0.27-0.46,0.53-0.73,0.78
					c-0.1,0.09-0.18,0.19-0.29,0.28c-0.16,0.15-0.35,0.29-0.53,0.44c-0.16,0.13-0.31,0.26-0.48,0.38c-0.2,0.14-0.41,0.28-0.62,0.41
					c-0.22,0.14-0.42,0.28-0.65,0.42c-0.75,0.43-1.56,0.8-2.4,1.14c-0.22,0.09-0.44,0.17-0.67,0.25c-0.52,0.19-1.07,0.34-1.62,0.49
					c-0.57,0.16-1.14,0.31-1.73,0.43c-0.69,0.14-1.38,0.27-2.09,0.36c-0.17,0.02-0.34,0.05-0.52,0.07c-0.96,0.1-1.93,0.15-2.89,0.16
					c-0.15,0-0.31,0-0.46,0c-0.96-0.01-1.91-0.06-2.86-0.16c-0.14-0.01-0.29-0.03-0.43-0.05c-0.94-0.11-1.86-0.27-2.77-0.47
					c-0.17-0.04-0.33-0.08-0.49-0.12c-0.82-0.2-1.62-0.45-2.39-0.73c-0.14-0.05-0.29-0.09-0.43-0.14c-0.92-0.36-1.81-0.77-2.63-1.24
					c-3.39-1.96-5.08-4.53-5.07-7.09l-0.11,39.28c-0.01,2.57,1.68,5.14,5.07,7.09c0.78,0.45,1.61,0.85,2.49,1.19
					c0.05,0.02,0.1,0.03,0.14,0.05c0.14,0.05,0.28,0.09,0.42,0.14c0.5,0.18,1,0.37,1.53,0.52c0.28,0.08,0.58,0.14,0.86,0.21
					c0.16,0.04,0.32,0.08,0.49,0.12c0.15,0.03,0.29,0.08,0.44,0.11c0.56,0.12,1.13,0.22,1.71,0.3c0.21,0.03,0.41,0.04,0.62,0.07
					c0.14,0.02,0.28,0.03,0.43,0.05c0.21,0.02,0.42,0.05,0.63,0.07c0.56,0.05,1.13,0.08,1.7,0.09c0.18,0,0.36,0,0.54,0
					c0.15,0,0.31,0,0.46,0c0.26,0,0.51,0.01,0.77,0c0.64-0.02,1.28-0.06,1.91-0.13c0.07-0.01,0.15-0.02,0.22-0.03
					c0.17-0.02,0.34-0.05,0.51-0.07c0.49-0.06,0.98-0.12,1.47-0.2c0.21-0.04,0.41-0.11,0.62-0.15c0.59-0.12,1.16-0.27,1.73-0.43
					c0.3-0.08,0.62-0.13,0.91-0.23c0.24-0.08,0.47-0.18,0.7-0.27c0.23-0.08,0.45-0.16,0.67-0.25c0.84-0.34,1.66-0.71,2.4-1.14
					c0.07-0.04,0.14-0.08,0.21-0.12c0.16-0.1,0.3-0.2,0.45-0.3c0.21-0.14,0.42-0.27,0.62-0.41c0.17-0.12,0.33-0.25,0.49-0.38
					c0.18-0.14,0.36-0.29,0.53-0.43c0.03-0.03,0.07-0.06,0.11-0.09c0.07-0.06,0.11-0.13,0.18-0.19c0.26-0.26,0.51-0.52,0.73-0.78
					c0.05-0.06,0.11-0.11,0.16-0.17c0.05-0.06,0.07-0.12,0.12-0.18c0.15-0.2,0.28-0.4,0.41-0.6c0.05-0.08,0.12-0.17,0.17-0.25
					c0.02-0.04,0.04-0.09,0.06-0.13c0.1-0.18,0.17-0.36,0.25-0.54c0.05-0.1,0.11-0.21,0.15-0.31c0.01-0.04,0.02-0.07,0.03-0.11
					c0.06-0.17,0.1-0.34,0.15-0.51c0.03-0.12,0.08-0.23,0.1-0.35c0.01-0.03,0-0.06,0.01-0.09c0.03-0.18,0.05-0.36,0.06-0.54
					c0.01-0.12,0.04-0.24,0.04-0.36c0-0.05,0-0.1,0-0.15l0.11-39.28C486.39,331.14,486.37,331.31,486.35,331.47z"/>
				<g>
					<path class="st20" d="M481.31,323.86c6.76,3.9,6.78,10.22,0.08,14.11c-6.7,3.89-17.6,3.9-24.36,0
						c-6.74-3.89-6.77-10.21-0.07-14.1C463.66,319.98,474.57,319.97,481.31,323.86z"/>
				</g>
			</g>
		</g>
		<g>
			<g class="st0">
				<path class="st4" d="M527.82,342.82c-0.02,0.18-0.03,0.36-0.06,0.54c-0.03,0.15-0.07,0.3-0.11,0.44
					c-0.04,0.17-0.09,0.34-0.15,0.51c-0.05,0.14-0.12,0.28-0.18,0.42c-0.08,0.18-0.16,0.36-0.25,0.54
					c-0.07,0.13-0.15,0.26-0.23,0.38c-0.12,0.2-0.26,0.4-0.41,0.6c-0.09,0.12-0.18,0.23-0.28,0.35c-0.22,0.27-0.46,0.53-0.73,0.78
					c-0.1,0.09-0.18,0.19-0.29,0.28c-0.16,0.15-0.35,0.29-0.53,0.44c-0.16,0.13-0.31,0.26-0.48,0.38c-0.2,0.14-0.41,0.28-0.62,0.41
					c-0.22,0.14-0.42,0.28-0.65,0.42c-0.75,0.43-1.56,0.8-2.4,1.14c-0.22,0.09-0.44,0.17-0.67,0.25c-0.52,0.19-1.07,0.34-1.62,0.49
					c-0.57,0.16-1.14,0.31-1.73,0.43c-0.69,0.14-1.38,0.27-2.09,0.36c-0.17,0.02-0.34,0.05-0.52,0.07c-0.96,0.1-1.92,0.15-2.89,0.16
					c-0.15,0-0.31,0-0.46,0c-0.96-0.01-1.91-0.06-2.86-0.16c-0.14-0.01-0.29-0.03-0.43-0.05c-0.94-0.11-1.86-0.27-2.77-0.47
					c-0.17-0.04-0.33-0.08-0.49-0.12c-0.82-0.2-1.62-0.45-2.39-0.73c-0.14-0.05-0.29-0.09-0.43-0.14c-0.92-0.36-1.81-0.77-2.63-1.24
					c-3.39-1.96-5.08-4.53-5.07-7.09l-0.11,39.28c-0.01,2.57,1.68,5.14,5.07,7.09c0.78,0.45,1.61,0.85,2.49,1.19
					c0.05,0.02,0.1,0.03,0.14,0.05c0.14,0.05,0.28,0.09,0.42,0.14c0.5,0.18,1,0.37,1.53,0.52c0.28,0.08,0.58,0.14,0.86,0.21
					c0.16,0.04,0.32,0.08,0.49,0.12c0.15,0.03,0.29,0.08,0.44,0.11c0.56,0.12,1.13,0.22,1.71,0.3c0.21,0.03,0.41,0.04,0.62,0.07
					c0.14,0.02,0.28,0.03,0.43,0.05c0.21,0.02,0.42,0.05,0.63,0.07c0.56,0.05,1.13,0.08,1.7,0.09c0.18,0,0.36,0,0.54,0
					c0.15,0,0.31,0,0.46,0c0.26,0,0.51,0.01,0.77,0c0.64-0.02,1.28-0.06,1.91-0.13c0.07-0.01,0.15-0.02,0.22-0.03
					c0.17-0.02,0.34-0.05,0.51-0.07c0.49-0.06,0.98-0.12,1.47-0.2c0.21-0.04,0.41-0.11,0.62-0.15c0.59-0.12,1.16-0.27,1.73-0.43
					c0.3-0.08,0.62-0.13,0.91-0.23c0.24-0.08,0.47-0.18,0.7-0.27c0.23-0.08,0.45-0.16,0.67-0.25c0.84-0.34,1.66-0.71,2.4-1.14
					c0.07-0.04,0.14-0.08,0.21-0.12c0.16-0.1,0.3-0.2,0.45-0.3c0.21-0.14,0.42-0.27,0.62-0.41c0.17-0.12,0.33-0.25,0.49-0.38
					c0.18-0.14,0.36-0.29,0.53-0.43c0.03-0.03,0.07-0.06,0.11-0.09c0.07-0.06,0.11-0.13,0.18-0.19c0.26-0.26,0.51-0.52,0.73-0.78
					c0.05-0.06,0.11-0.11,0.16-0.17c0.05-0.06,0.07-0.12,0.12-0.18c0.15-0.2,0.28-0.4,0.41-0.6c0.05-0.08,0.12-0.17,0.17-0.25
					c0.02-0.04,0.04-0.09,0.06-0.13c0.1-0.18,0.17-0.36,0.25-0.54c0.05-0.1,0.11-0.21,0.15-0.31c0.01-0.04,0.02-0.07,0.03-0.11
					c0.06-0.17,0.1-0.34,0.15-0.51c0.03-0.12,0.08-0.23,0.1-0.35c0.01-0.03,0-0.06,0.01-0.09c0.03-0.18,0.05-0.36,0.06-0.54
					c0.01-0.12,0.04-0.24,0.04-0.36c0-0.05,0-0.1,0-0.15l0.11-39.28C527.86,342.49,527.84,342.65,527.82,342.82z"/>
				<path class="st4" d="M527.82,342.82c-0.02,0.18-0.03,0.36-0.06,0.54c-0.03,0.15-0.07,0.3-0.11,0.44
					c-0.04,0.17-0.09,0.34-0.15,0.51c-0.05,0.14-0.12,0.28-0.18,0.42c-0.08,0.18-0.16,0.36-0.25,0.54
					c-0.07,0.13-0.15,0.26-0.23,0.38c-0.12,0.2-0.26,0.4-0.41,0.6c-0.09,0.12-0.18,0.23-0.28,0.35c-0.22,0.27-0.46,0.53-0.73,0.78
					c-0.1,0.09-0.18,0.19-0.29,0.28c-0.16,0.15-0.35,0.29-0.53,0.44c-0.16,0.13-0.31,0.26-0.48,0.38c-0.2,0.14-0.41,0.28-0.62,0.41
					c-0.22,0.14-0.42,0.28-0.65,0.42c-0.75,0.43-1.56,0.8-2.4,1.14c-0.22,0.09-0.44,0.17-0.67,0.25c-0.52,0.19-1.07,0.34-1.62,0.49
					c-0.57,0.16-1.14,0.31-1.73,0.43c-0.69,0.14-1.38,0.27-2.09,0.36c-0.17,0.02-0.34,0.05-0.52,0.07c-0.96,0.1-1.92,0.15-2.89,0.16
					c-0.15,0-0.31,0-0.46,0c-0.96-0.01-1.91-0.06-2.86-0.16c-0.14-0.01-0.29-0.03-0.43-0.05c-0.94-0.11-1.86-0.27-2.77-0.47
					c-0.17-0.04-0.33-0.08-0.49-0.12c-0.82-0.2-1.62-0.45-2.39-0.73c-0.14-0.05-0.29-0.09-0.43-0.14c-0.92-0.36-1.81-0.77-2.63-1.24
					c-3.39-1.96-5.08-4.53-5.07-7.09l-0.11,39.28c-0.01,2.57,1.68,5.14,5.07,7.09c0.78,0.45,1.61,0.85,2.49,1.19
					c0.05,0.02,0.1,0.03,0.14,0.05c0.14,0.05,0.28,0.09,0.42,0.14c0.5,0.18,1,0.37,1.53,0.52c0.28,0.08,0.58,0.14,0.86,0.21
					c0.16,0.04,0.32,0.08,0.49,0.12c0.15,0.03,0.29,0.08,0.44,0.11c0.56,0.12,1.13,0.22,1.71,0.3c0.21,0.03,0.41,0.04,0.62,0.07
					c0.14,0.02,0.28,0.03,0.43,0.05c0.21,0.02,0.42,0.05,0.63,0.07c0.56,0.05,1.13,0.08,1.7,0.09c0.18,0,0.36,0,0.54,0
					c0.15,0,0.31,0,0.46,0c0.26,0,0.51,0.01,0.77,0c0.64-0.02,1.28-0.06,1.91-0.13c0.07-0.01,0.15-0.02,0.22-0.03
					c0.17-0.02,0.34-0.05,0.51-0.07c0.49-0.06,0.98-0.12,1.47-0.2c0.21-0.04,0.41-0.11,0.62-0.15c0.59-0.12,1.16-0.27,1.73-0.43
					c0.3-0.08,0.62-0.13,0.91-0.23c0.24-0.08,0.47-0.18,0.7-0.27c0.23-0.08,0.45-0.16,0.67-0.25c0.84-0.34,1.66-0.71,2.4-1.14
					c0.07-0.04,0.14-0.08,0.21-0.12c0.16-0.1,0.3-0.2,0.45-0.3c0.21-0.14,0.42-0.27,0.62-0.41c0.17-0.12,0.33-0.25,0.49-0.38
					c0.18-0.14,0.36-0.29,0.53-0.43c0.03-0.03,0.07-0.06,0.11-0.09c0.07-0.06,0.11-0.13,0.18-0.19c0.26-0.26,0.51-0.52,0.73-0.78
					c0.05-0.06,0.11-0.11,0.16-0.17c0.05-0.06,0.07-0.12,0.12-0.18c0.15-0.2,0.28-0.4,0.41-0.6c0.05-0.08,0.12-0.17,0.17-0.25
					c0.02-0.04,0.04-0.09,0.06-0.13c0.1-0.18,0.17-0.36,0.25-0.54c0.05-0.1,0.11-0.21,0.15-0.31c0.01-0.04,0.02-0.07,0.03-0.11
					c0.06-0.17,0.1-0.34,0.15-0.51c0.03-0.12,0.08-0.23,0.1-0.35c0.01-0.03,0-0.06,0.01-0.09c0.03-0.18,0.05-0.36,0.06-0.54
					c0.01-0.12,0.04-0.24,0.04-0.36c0-0.05,0-0.1,0-0.15l0.11-39.28C527.86,342.49,527.84,342.65,527.82,342.82z"/>
				<g>
					<path class="st20" d="M522.78,335.21c6.76,3.9,6.78,10.22,0.08,14.11c-6.7,3.89-17.6,3.9-24.36,0
						c-6.74-3.89-6.77-10.21-0.07-14.1C505.13,331.33,516.04,331.32,522.78,335.21z"/>
				</g>
			</g>
		</g>
	</g>
	<g>
		<g>
			<g class="st0">
				<g>
					<polygon class="st29" points="370.24,503.31 415.97,476.74 407.29,525.95 365.39,550.29 					"/>
				</g>
				<g>
					<polygon class="st3" points="415.97,476.74 393.82,489.61 370.25,503.31 320.41,474.54 293.14,458.8 343.54,434.91 					"/>
				</g>
				<g>
					<polygon class="st6" points="370.24,503.31 365.39,550.29 297.7,511.21 293.14,458.8 					"/>
				</g>
			</g>
		</g>
		<g>
			<polygon class="st37" points="371.24,437.33 368.01,449.05 375.57,453.41 373.13,436.5 			"/>
			<path class="st15" d="M372.15,434.01c0.07-0.24-0.01-0.5-0.21-0.67c-0.19-0.16-0.46-0.2-0.69-0.09l-30.65,14.12
				c-0.08,0.04-0.16,0.09-0.22,0.16l-25.76,29.56c-0.24,0.27-0.21,0.68,0.06,0.92c0.12,0.11,0.28,0.16,0.43,0.16
				c0.18,0,0.36-0.08,0.49-0.22l25.67-29.46l29.25-13.48l-0.38,1.37l1.53-0.67L372.15,434.01z"/>
			<polygon class="st15" points="371.24,437.33 369.71,438 366.85,448.38 368.01,449.05 			"/>
			<path class="st15" d="M373.13,436.5l2.44,16.91l1.43,0.83l-2.7-18.77c-0.03-0.2-0.15-0.38-0.33-0.47
				c-0.18-0.1-0.39-0.11-0.58-0.03l-1.71,0.75l-1.53,0.67L341.37,449c-0.17,0.08-0.31,0.23-0.36,0.41l-10.82,36.23
				c-0.1,0.34,0.09,0.7,0.44,0.81c0.06,0.02,0.12,0.03,0.19,0.03c0.28,0,0.54-0.18,0.62-0.46l10.74-35.94L369.71,438l1.53-0.67
				L373.13,436.5z"/>
		</g>
	</g>
	<g class="st0">
		<g>
			<path class="st15" d="M668.13,213.32c3.65-2.11,6.41-0.88,6.43,4.02c0.01,4.94-2.74,9.3-6.38,11.41
				c-3.65,2.11-6.41,0.93-6.43-4.01C661.74,219.83,664.49,215.42,668.13,213.32z M668.16,224.48c0.77-0.44,1.52-1.67,1.51-4.32
				c-0.01-2.65-0.76-3-1.53-2.56c-0.75,0.44-1.51,1.66-1.5,4.31C666.65,224.56,667.41,224.91,668.16,224.48"/>
		</g>
		<g>
			<polygon class="st15" points="664.59,202.7 670.4,199.34 654.03,236.53 648.21,239.89 			"/>
		</g>
		<g>
			<path class="st15" d="M660.23,188.59c15.25-8.81,27.71-1.71,27.76,15.83c0.05,17.52-12.32,38.96-27.58,47.76
				c-15.26,8.81-27.72,1.71-27.77-15.81C632.59,218.84,644.97,197.4,660.23,188.59z M660.4,249.84
				c14.13-8.16,25.59-28.01,25.55-44.25c-0.05-16.24-11.59-22.82-25.71-14.67c-14.14,8.16-25.59,28.01-25.55,44.26
				C634.74,251.42,646.26,258.01,660.4,249.84"/>
		</g>
		<g>
			<path class="st4" d="M668.15,217.6c-0.75,0.44-1.51,1.66-1.5,4.31c0.01,2.65,0.76,3,1.52,2.57c0.77-0.44,1.52-1.67,1.51-4.32
				C669.67,217.51,668.91,217.16,668.15,217.6z"/>
			<path class="st4" d="M660.23,190.93c-14.14,8.16-25.59,28.01-25.55,44.26c0.05,16.23,11.58,22.81,25.71,14.65
				c14.13-8.16,25.59-28.01,25.55-44.25C685.9,189.35,674.36,182.78,660.23,190.93z M644.05,221.87c-0.01-4.9,2.74-9.3,6.38-11.41
				c3.65-2.11,6.41-0.89,6.43,4.01c0.01,4.95-2.74,9.31-6.38,11.42C646.83,228,644.07,226.82,644.05,221.87z M654.03,236.53
				l-5.82,3.36l16.38-37.19l5.82-3.36L654.03,236.53z M668.18,228.75c-3.65,2.11-6.41,0.93-6.43-4.01
				c-0.01-4.9,2.74-9.31,6.38-11.42c3.65-2.11,6.41-0.88,6.43,4.02C674.57,222.28,671.82,226.64,668.18,228.75z"/>
			<path class="st4" d="M651.98,217.29c-0.01-2.64-0.78-3-1.53-2.56c-0.75,0.44-1.52,1.68-1.51,4.32c0.01,2.65,0.78,3.01,1.53,2.58
				C651.22,221.19,651.99,219.95,651.98,217.29z"/>
			<path class="st4" d="M660.22,184.38c-17.31,9.99-31.3,34.23-31.24,54.12c0.06,19.88,14.14,27.9,31.45,17.91
				c17.3-9.99,31.29-34.22,31.23-54.1C691.6,182.41,677.52,174.39,660.22,184.38z M660.41,252.19
				c-15.26,8.81-27.72,1.71-27.77-15.81c-0.05-17.54,12.32-38.97,27.59-47.78c15.25-8.81,27.71-1.71,27.76,15.83
				C688.03,221.95,675.66,243.38,660.41,252.19z"/>
		</g>
		<g>
			<path class="st15" d="M656.86,214.47c0.01,4.95-2.74,9.31-6.38,11.42c-3.65,2.11-6.41,0.93-6.43-4.02
				c-0.01-4.9,2.74-9.3,6.38-11.41C654.08,208.36,656.85,209.57,656.86,214.47z M648.94,219.05c0.01,2.65,0.78,3.01,1.53,2.58
				c0.75-0.44,1.52-1.68,1.51-4.33c-0.01-2.64-0.78-3-1.53-2.56C649.69,215.17,648.93,216.41,648.94,219.05"/>
		</g>
		<path class="st38" d="M629.22,233.92c0.07-0.75,0.16-1.5,0.27-2.25c0.12-0.83,0.27-1.66,0.43-2.5c0.11-0.57,0.21-1.14,0.34-1.71
			c0.12-0.53,0.26-1.07,0.39-1.6c0.19-0.74,0.38-1.49,0.6-2.23c0.13-0.43,0.26-0.86,0.4-1.3c0.26-0.84,0.54-1.67,0.84-2.51
			c0.12-0.34,0.24-0.69,0.37-1.03c0.43-1.15,0.89-2.3,1.39-3.44c0.06-0.13,0.12-0.26,0.18-0.4c0.45-1.02,0.93-2.03,1.43-3.03
			c0.16-0.32,0.32-0.63,0.48-0.94c0.49-0.95,1-1.89,1.53-2.82c0.1-0.18,0.2-0.36,0.3-0.54c0.63-1.09,1.29-2.16,1.97-3.21
			c0.2-0.31,0.41-0.61,0.61-0.91c0.51-0.76,1.02-1.5,1.55-2.24c0.29-0.4,0.58-0.79,0.87-1.18c0.46-0.61,0.94-1.21,1.41-1.81
			c0.4-0.5,0.81-1,1.22-1.48c0.39-0.46,0.79-0.91,1.19-1.35c0.68-0.76,1.38-1.5,2.09-2.22c0.44-0.45,0.88-0.9,1.33-1.33
			c0.35-0.34,0.7-0.66,1.06-0.99c0.58-0.53,1.17-1.05,1.77-1.55c0.36-0.3,0.71-0.6,1.07-0.89c0.65-0.52,1.31-1.01,1.97-1.48
			c0.32-0.23,0.63-0.47,0.95-0.69c0.98-0.68,1.98-1.32,2.99-1.9c0.67-0.38,1.33-0.73,1.98-1.07c0.19-0.1,0.38-0.19,0.57-0.28
			c0.5-0.24,1-0.47,1.49-0.68c0.17-0.07,0.35-0.15,0.52-0.23c0.46-0.19,0.92-0.36,1.38-0.53c0.11-0.04,0.23-0.09,0.35-0.13
			c0.57-0.2,1.13-0.37,1.69-0.52c0.08-0.02,0.16-0.04,0.24-0.06c0.88-0.23,1.74-0.42,2.59-0.55c0.01,0,0.01,0,0.02,0
			c0.71-0.11,1.41-0.17,2.09-0.21c0.14-0.01,0.28-0.02,0.41-0.02c0.62-0.02,1.22-0.02,1.82,0.01c0.1,0.01,0.2,0.02,0.31,0.03
			c0.48,0.04,0.95,0.09,1.42,0.17c0.15,0.02,0.29,0.04,0.43,0.07c0.53,0.1,1.06,0.21,1.57,0.36c0.02,0.01,0.04,0.02,0.07,0.02
			c0.48,0.14,0.95,0.31,1.41,0.5c0.13,0.05,0.27,0.11,0.4,0.17c0.39,0.17,0.78,0.36,1.15,0.56c0.12,0.07,0.25,0.13,0.38,0.2
			l-6.21-3.61c-0.06-0.03-0.11-0.07-0.17-0.1c-0.07-0.04-0.14-0.06-0.2-0.1c-0.38-0.2-0.76-0.39-1.15-0.56
			c-0.07-0.03-0.14-0.07-0.22-0.11c-0.06-0.03-0.13-0.04-0.19-0.07c-0.46-0.19-0.93-0.36-1.41-0.5c-0.02-0.01-0.04-0.01-0.06-0.02
			c0,0-0.01,0-0.01,0c-0.51-0.15-1.03-0.26-1.57-0.36c-0.06-0.01-0.12-0.03-0.18-0.04c-0.08-0.01-0.17-0.02-0.25-0.03
			c-0.46-0.07-0.94-0.13-1.42-0.17c-0.08-0.01-0.15-0.02-0.23-0.03c-0.03,0-0.05,0-0.08,0c-0.59-0.03-1.2-0.04-1.82-0.01
			c-0.06,0-0.12,0-0.18,0c-0.08,0-0.16,0.02-0.24,0.02c-0.69,0.04-1.38,0.1-2.09,0.21c0,0,0,0-0.01,0c-0.01,0-0.01,0-0.02,0
			c-0.85,0.13-1.71,0.32-2.59,0.55c-0.05,0.01-0.1,0.02-0.15,0.03c-0.03,0.01-0.06,0.02-0.09,0.03c-0.56,0.15-1.12,0.33-1.69,0.52
			c-0.11,0.04-0.23,0.09-0.35,0.13c-0.46,0.16-0.92,0.34-1.38,0.53c-0.06,0.03-0.12,0.04-0.18,0.07c-0.11,0.05-0.23,0.11-0.34,0.16
			c-0.49,0.21-0.99,0.44-1.49,0.68c-0.19,0.09-0.38,0.18-0.57,0.28c-0.66,0.33-1.32,0.68-1.98,1.07c-1.01,0.58-2,1.22-2.99,1.9
			c-0.32,0.22-0.63,0.46-0.95,0.69c-0.66,0.48-1.32,0.97-1.97,1.48c-0.36,0.29-0.71,0.59-1.07,0.89c-0.6,0.5-1.19,1.02-1.77,1.55
			c-0.36,0.33-0.71,0.65-1.06,0.99c-0.22,0.21-0.44,0.4-0.66,0.62c-0.23,0.23-0.44,0.48-0.67,0.71c-0.71,0.72-1.41,1.46-2.09,2.23
			c-0.22,0.24-0.45,0.46-0.67,0.71c-0.18,0.21-0.35,0.43-0.53,0.64c-0.41,0.49-0.82,0.98-1.22,1.48c-0.26,0.33-0.54,0.64-0.8,0.97
			c-0.21,0.27-0.41,0.56-0.62,0.83c-0.29,0.39-0.58,0.78-0.87,1.18c-0.2,0.27-0.4,0.54-0.6,0.81c-0.33,0.47-0.64,0.95-0.95,1.42
			c-0.2,0.3-0.41,0.6-0.61,0.91c-0.08,0.13-0.17,0.25-0.25,0.38c-0.56,0.87-1.1,1.76-1.62,2.65c-0.03,0.06-0.07,0.12-0.1,0.18
			c-0.1,0.18-0.2,0.36-0.3,0.54c-0.36,0.64-0.72,1.27-1.07,1.92c-0.16,0.3-0.3,0.6-0.46,0.9c-0.16,0.31-0.32,0.63-0.48,0.94
			c-0.14,0.27-0.28,0.54-0.41,0.82c-0.35,0.73-0.69,1.47-1.01,2.22c-0.06,0.13-0.12,0.26-0.18,0.4c-0.02,0.04-0.03,0.07-0.05,0.11
			c-0.4,0.93-0.79,1.87-1.15,2.81c-0.07,0.17-0.12,0.35-0.19,0.52c-0.13,0.34-0.25,0.69-0.37,1.03c-0.17,0.47-0.35,0.94-0.51,1.41
			c-0.12,0.37-0.22,0.73-0.34,1.1c-0.14,0.43-0.27,0.86-0.4,1.3c-0.08,0.27-0.17,0.53-0.24,0.8c-0.13,0.48-0.23,0.96-0.35,1.43
			c-0.13,0.54-0.27,1.07-0.39,1.6c-0.04,0.19-0.1,0.37-0.14,0.56c-0.08,0.39-0.12,0.77-0.2,1.15c-0.16,0.84-0.31,1.67-0.43,2.5
			c-0.03,0.23-0.09,0.46-0.12,0.69c-0.07,0.52-0.1,1.04-0.15,1.56c-0.04,0.37-0.08,0.74-0.11,1.11c-0.09,1.17-0.14,2.32-0.14,3.47
			c0.03,9.87,3.52,16.82,9.14,20.09l6.21,3.61c-5.63-3.27-9.11-10.22-9.14-20.09c0-1.14,0.05-2.3,0.14-3.47
			C629.14,234.66,629.18,234.29,629.22,233.92z"/>
	</g>
</g>
</svg>
